<?xml version="1.0" standalone="no"?>
<!DOCTYPE svg PUBLIC "-//W3C//DTD SVG 20010904//EN"
 "http://www.w3.org/TR/2001/REC-SVG-20010904/DTD/svg10.dtd">
<svg version="1.0" xmlns="http://www.w3.org/2000/svg"
 width="1500.000000pt" height="1600.000000pt" viewBox="0 0 1500.000000 1600.000000"
 preserveAspectRatio="xMidYMid meet">
<metadata>
Created by potrace 1.15, written by Peter Selinger 2001-2017
</metadata>
<g transform="translate(0.000000,1600.000000) scale(0.100000,-0.100000)"
fill="#000000" stroke="none">
<path d="M0 15555 c0 -432 1 -446 20 -465 11 -11 22 -20 24 -20 3 0 25 -19 50
-42 24 -24 51 -47 58 -53 7 -5 34 -28 59 -50 25 -22 56 -49 70 -60 58 -49 196
-171 216 -192 12 -13 24 -23 27 -23 3 0 26 -21 53 -47 38 -38 48 -54 49 -83 0
-19 7 -113 14 -207 l14 -173 25 0 c78 0 347 23 356 31 15 14 22 11 64 -28 21
-21 61 -56 87 -78 26 -22 56 -48 66 -57 10 -10 21 -18 24 -18 3 0 17 -13 32
-28 15 -15 56 -52 92 -82 36 -30 75 -65 87 -77 12 -13 25 -23 28 -23 3 0 16
-10 28 -23 20 -21 133 -122 211 -188 16 -13 40 -35 55 -49 14 -14 58 -52 96
-85 39 -32 80 -69 92 -82 12 -12 25 -23 28 -23 3 0 24 -19 48 -43 36 -37 81
-76 195 -172 14 -11 50 -43 81 -72 43 -40 60 -49 73 -42 9 5 35 9 57 9 37 0
41 -2 41 -25 0 -21 -5 -25 -30 -25 -16 0 -30 -3 -30 -7 0 -12 95 -92 98 -82 6
15 49 10 56 -7 3 -9 6 -28 6 -43 0 -18 8 -32 28 -44 15 -9 49 -37 75 -62 26
-25 50 -45 53 -45 3 0 15 -11 27 -23 12 -13 60 -57 107 -97 47 -41 93 -81 103
-89 9 -9 17 -29 17 -46 1 -46 33 -78 73 -72 33 5 73 -21 149 -95 16 -16 31
-28 33 -28 2 0 21 -16 41 -37 l36 -36 -17 -29 c-43 -74 38 -165 121 -138 19 7
34 16 34 21 0 19 28 7 65 -29 22 -20 61 -55 87 -76 53 -43 57 -54 28 -79 -16
-14 -20 -29 -20 -81 0 -56 3 -69 25 -91 22 -22 35 -25 90 -25 58 0 66 3 92 30
l29 31 47 -42 47 -42 0 -68 c0 -37 -5 -71 -10 -74 -15 -9 -12 -89 5 -121 8
-16 15 -55 15 -87 0 -53 2 -58 28 -68 15 -6 87 -13 160 -16 72 -3 132 -10 132
-15 0 -5 -7 -16 -15 -24 -38 -38 -3 -160 59 -202 44 -30 142 -31 176 -2 13 11
27 20 31 20 4 0 11 10 15 23 4 12 10 24 13 27 4 3 11 15 16 27 10 22 12 20 80
-39 39 -33 72 -65 73 -70 2 -4 -10 -11 -27 -14 -17 -4 -31 -10 -31 -15 0 -5
-6 -9 -14 -9 -7 0 -19 -6 -25 -14 -7 -8 -44 -16 -99 -21 -48 -4 -91 -11 -97
-15 -5 -4 -37 -11 -70 -15 -33 -4 -64 -10 -70 -15 -17 -13 -75 -17 -75 -6 -1
15 -36 56 -48 56 -6 0 -12 5 -14 11 -2 5 -21 14 -43 19 -91 21 -182 -32 -192
-110 l-6 -40 -36 22 c-20 12 -45 27 -56 32 -11 6 -22 13 -25 16 -11 11 -70 50
-75 50 -3 0 -37 20 -75 45 -38 25 -72 45 -76 45 -3 0 -23 14 -44 30 -21 17
-41 30 -44 30 -4 0 -37 19 -74 43 -37 23 -76 47 -87 54 -25 15 -148 92 -183
115 -15 10 -36 22 -47 28 -11 5 -54 33 -95 60 -41 27 -84 55 -95 60 -55 28
-81 49 -94 75 -22 45 -51 64 -97 65 -24 0 -51 8 -65 18 -13 10 -31 22 -39 25
-8 4 -27 15 -41 25 -15 9 -58 37 -98 61 -39 24 -71 46 -71 50 0 3 9 12 20 19
44 27 13 112 -41 112 -33 0 -69 -31 -69 -59 0 -21 0 -21 -40 4 -22 14 -44 25
-49 25 -5 0 -11 3 -13 8 -4 8 -65 52 -73 52 -3 0 -37 20 -75 45 -38 25 -73 45
-79 45 -5 0 -11 4 -13 8 -1 5 -36 28 -76 53 -40 24 -85 52 -100 61 -15 10 -34
21 -42 25 -8 3 -17 9 -20 13 -3 3 -38 26 -78 50 -40 25 -85 53 -100 62 -15 9
-37 23 -49 30 -25 15 -150 94 -191 121 -15 9 -35 20 -44 23 -10 4 -18 10 -18
14 0 5 -12 13 -27 19 -16 6 -62 34 -103 61 -41 28 -84 55 -95 60 -11 6 -32 18
-46 28 -26 17 -144 91 -184 115 -11 7 -50 31 -87 55 -37 23 -71 42 -77 42 -5
0 -11 3 -13 8 -4 8 -65 52 -73 52 -3 0 -37 20 -75 45 -38 25 -73 45 -79 45 -5
0 -11 3 -13 8 -4 8 -65 52 -73 52 -3 0 -37 20 -75 45 -38 25 -71 45 -74 45 -5
0 -108 66 -158 101 -15 10 -30 19 -33 19 -3 0 -5 -407 -5 -904 l0 -904 33 -12
c17 -6 50 -19 72 -27 22 -8 57 -21 78 -29 52 -20 118 -45 142 -55 22 -9 152
-58 285 -108 47 -18 102 -39 123 -47 20 -8 54 -20 75 -28 20 -8 60 -23 89 -35
28 -11 84 -32 125 -47 40 -14 87 -31 103 -39 17 -7 49 -20 73 -29 114 -43 138
-52 216 -85 27 -12 56 -21 65 -21 9 0 25 -7 35 -15 11 -8 29 -15 41 -15 12 0
25 -3 28 -6 9 -10 120 -54 134 -54 6 0 24 -6 40 -14 15 -8 46 -21 68 -29 54
-20 125 -47 150 -58 11 -5 47 -18 80 -30 33 -11 74 -27 90 -34 17 -7 50 -21
75 -30 25 -9 60 -23 78 -31 18 -8 43 -14 55 -14 13 0 17 -3 11 -8 -24 -15 -51
-81 -46 -111 2 -17 8 -31 13 -31 5 0 9 -7 9 -15 0 -8 7 -15 15 -15 8 0 15 -4
15 -9 0 -13 39 -21 70 -14 47 9 80 48 80 94 0 35 3 40 18 34 9 -4 26 -10 37
-13 11 -2 25 -8 30 -13 6 -4 39 -17 75 -28 36 -12 79 -28 95 -35 17 -8 49 -21
73 -30 23 -9 59 -22 80 -30 20 -8 75 -29 122 -47 47 -17 97 -36 112 -42 l26
-11 -61 -64 c-34 -34 -64 -68 -66 -73 -2 -6 -17 -25 -35 -43 -46 -49 -86 -99
-86 -109 0 -4 -11 -18 -25 -31 -14 -13 -25 -26 -25 -30 0 -9 -43 -70 -52 -74
-5 -2 -8 -9 -8 -16 0 -7 -9 -23 -20 -36 -11 -13 -20 -29 -20 -37 0 -7 -4 -13
-9 -13 -5 0 -12 -11 -15 -25 -4 -14 -10 -25 -15 -25 -5 0 -12 -14 -16 -30 -4
-16 -11 -30 -16 -30 -5 0 -9 -6 -9 -14 0 -7 -13 -23 -30 -36 -16 -12 -32 -32
-36 -44 -12 -38 -22 -44 -62 -36 -20 5 -82 16 -137 25 -55 9 -131 22 -170 30
-38 7 -113 21 -165 30 -125 21 -248 43 -340 60 -41 7 -118 21 -170 30 -52 9
-125 23 -161 31 -37 8 -77 14 -90 14 -13 0 -53 6 -89 14 -36 8 -108 22 -160
31 -212 36 -267 46 -314 57 -26 6 -74 14 -105 18 -76 11 -177 29 -231 41 -25
6 -70 15 -100 19 -156 23 -210 33 -261 46 -30 8 -63 14 -72 14 -16 0 -17 -51
-17 -716 l0 -716 276 6 c257 5 277 7 301 26 50 39 97 38 148 -2 29 -22 55 -32
55 -20 0 4 -9 18 -20 32 -12 16 -20 41 -20 67 0 34 6 48 35 79 34 36 36 36 55
19 25 -23 25 -37 0 -60 -11 -10 -20 -26 -20 -35 0 -25 81 -114 90 -99 5 7 22
10 45 7 35 -4 37 -3 31 23 -4 23 1 30 45 58 53 32 69 55 51 73 -9 9 -26 4 -64
-15 -29 -15 -61 -27 -71 -27 -26 0 -77 54 -77 82 0 32 32 81 72 110 48 36 66
40 78 18 13 -25 13 -50 -2 -50 -6 0 -26 -11 -45 -26 -60 -46 -32 -79 33 -38
56 34 96 32 129 -8 22 -26 26 -39 21 -66 -6 -39 -24 -62 -81 -105 l-40 -29
663 4 662 5 -20 -22 c-11 -12 -20 -31 -20 -43 0 -11 -4 -23 -9 -27 -14 -8 15
-73 46 -101 23 -21 53 -30 90 -25 14 2 20 -31 28 -164 4 -55 10 -102 14 -105
5 -3 12 -35 15 -72 4 -37 11 -70 16 -73 4 -2 11 -30 15 -60 3 -30 10 -55 14
-55 5 0 11 -19 15 -42 4 -23 11 -47 16 -53 5 -6 12 -30 16 -53 6 -41 6 -42
-22 -42 -15 0 -55 -6 -88 -14 -34 -7 -97 -21 -141 -30 -44 -9 -112 -24 -152
-33 -39 -9 -81 -13 -94 -10 -12 3 -38 -1 -58 -10 -20 -8 -54 -19 -76 -23 -125
-24 -165 -33 -211 -46 -28 -8 -63 -14 -79 -14 -16 0 -51 -6 -79 -14 -28 -8
-74 -18 -103 -23 l-51 -9 5 33 c7 39 -10 63 -44 63 -21 0 -62 -33 -63 -50 0
-3 11 -17 23 -30 l24 -26 -81 -17 c-79 -17 -157 -34 -301 -62 -38 -8 -101 -21
-140 -29 -38 -8 -108 -22 -155 -31 -81 -16 -136 -27 -295 -60 -38 -8 -106 -21
-150 -30 -44 -9 -109 -23 -145 -31 -36 -8 -75 -14 -87 -14 l-23 0 0 -781 0
-780 28 15 c15 8 52 24 82 36 30 11 64 25 75 30 11 4 45 18 75 30 30 11 66 26
80 32 24 10 50 21 123 52 17 7 48 20 67 28 19 9 50 19 68 22 17 4 32 12 32 17
0 5 6 9 13 9 8 0 51 16 98 36 46 19 93 39 104 43 11 5 53 23 94 40 40 17 77
31 82 31 5 0 37 13 71 28 35 16 83 37 108 46 46 18 78 31 140 58 19 9 50 19
68 22 17 4 32 12 32 17 0 5 5 9 11 9 6 0 25 6 42 14 18 7 57 23 87 35 55 22
65 26 130 54 19 8 46 18 60 22 14 4 27 10 30 14 3 3 19 11 35 17 l30 10 2 -49
c0 -27 6 -52 11 -56 6 -3 13 -23 17 -44 4 -20 11 -37 15 -37 4 0 11 -16 14
-35 4 -19 11 -35 16 -35 4 0 11 -18 15 -40 4 -22 10 -40 15 -40 4 0 11 -16 14
-35 4 -19 11 -35 16 -35 6 0 10 -8 10 -17 0 -10 6 -30 14 -45 8 -15 17 -40 21
-57 4 -17 10 -31 15 -31 5 0 11 -14 15 -31 4 -17 13 -42 21 -57 8 -15 14 -35
14 -44 0 -10 5 -18 10 -18 6 0 10 -5 10 -11 0 -28 44 -96 75 -118 30 -20 44
-23 108 -19 l75 3 -29 -17 c-16 -10 -32 -18 -35 -18 -8 0 -69 -44 -72 -52 -2
-5 -9 -8 -16 -8 -7 0 -31 -13 -53 -29 -22 -16 -49 -32 -61 -35 -12 -4 -22 -11
-22 -16 0 -4 -8 -10 -18 -14 -9 -3 -29 -14 -44 -23 -15 -10 -60 -38 -100 -63
-40 -24 -75 -47 -78 -50 -3 -3 -21 -14 -40 -24 -19 -10 -54 -32 -78 -48 -24
-15 -45 -28 -47 -28 -2 0 -23 -13 -47 -29 -24 -16 -59 -37 -78 -48 -72 -40
-100 -58 -100 -65 0 -5 -5 -8 -11 -8 -5 0 -41 -20 -79 -45 -38 -25 -72 -45
-75 -45 -8 0 -69 -44 -73 -52 -2 -5 -9 -8 -15 -8 -7 0 -42 -20 -78 -43 -36
-24 -72 -47 -80 -50 -8 -4 -26 -15 -41 -25 -15 -9 -60 -37 -100 -61 -40 -25
-74 -48 -76 -53 -2 -4 -8 -8 -13 -8 -5 0 -28 -12 -52 -27 -54 -35 -77 -49
-102 -63 -25 -14 -48 -28 -102 -63 -24 -15 -47 -27 -53 -27 -5 0 -10 -4 -10
-9 0 -5 -14 -14 -30 -21 -17 -7 -30 -16 -30 -21 0 -5 -5 -9 -11 -9 -5 0 -40
-19 -77 -43 -37 -24 -74 -47 -82 -50 -8 -4 -27 -15 -42 -25 -54 -35 -170 -107
-187 -117 -55 -31 -51 60 -51 -1176 0 -627 4 -1139 8 -1139 4 0 19 13 32 30
14 16 28 29 32 30 3 0 25 18 49 41 23 22 92 86 153 142 61 55 128 118 148 139
21 21 40 38 43 38 2 0 20 15 39 33 18 17 62 59 97 91 35 33 83 78 106 100 l42
39 121 9 c67 4 125 10 129 13 5 2 12 55 16 117 l7 112 46 40 c26 23 70 64 98
91 61 58 87 82 244 225 63 58 134 123 156 145 23 22 54 51 70 64 16 14 63 57
104 95 42 39 122 114 179 166 56 52 115 106 129 120 15 14 79 72 142 130 63
58 136 126 163 152 l50 48 71 -6 c39 -4 99 -10 133 -13 35 -4 67 -5 72 -2 5 3
14 71 21 151 12 151 14 156 69 205 18 16 45 41 60 56 14 14 78 72 141 129 63
57 125 114 137 127 12 13 28 23 35 23 10 0 10 2 1 8 -6 4 -14 18 -18 32 -5 21
2 31 40 63 25 21 45 45 45 53 0 27 -30 27 -71 -1 -54 -38 -94 -37 -131 3 -33
37 -34 51 -11 99 14 30 91 93 113 93 4 0 12 -12 19 -27 11 -24 10 -29 -5 -38
-39 -22 -77 -62 -70 -73 11 -18 34 -14 74 13 47 32 73 32 111 -1 35 -29 40
-67 16 -114 -14 -28 -12 -82 5 -105 4 -5 11 -34 15 -62 4 -29 10 -55 15 -58 4
-3 11 -26 15 -52 4 -27 10 -52 13 -58 8 -11 27 -90 44 -177 7 -32 15 -58 20
-58 14 0 9 -27 -7 -40 -31 -26 -9 -100 30 -100 9 0 16 -17 21 -45 3 -25 10
-48 14 -50 5 -3 12 -30 15 -60 4 -30 11 -55 15 -55 4 0 11 -27 15 -60 4 -33
11 -60 15 -60 4 0 11 -25 15 -55 3 -30 10 -57 14 -60 5 -2 11 -28 15 -57 4
-29 12 -58 18 -65 13 -16 16 -112 3 -121 -14 -10 -85 -99 -85 -107 0 -3 -6
-12 -13 -19 -6 -8 -19 -24 -27 -36 -14 -20 -42 -59 -63 -85 -75 -95 -317 -427
-317 -435 0 -5 -4 -10 -9 -10 -5 0 -22 -20 -38 -45 -15 -25 -31 -45 -35 -45
-5 0 -8 -7 -8 -15 0 -8 -4 -15 -9 -15 -5 0 -22 -20 -38 -45 -15 -25 -31 -45
-35 -45 -5 0 -8 -7 -8 -15 0 -8 -4 -15 -9 -15 -5 0 -21 -20 -35 -45 -15 -25
-31 -45 -36 -45 -6 0 -10 -6 -10 -14 0 -8 -3 -16 -7 -18 -5 -1 -19 -19 -33
-39 -14 -20 -35 -49 -48 -65 -76 -98 -242 -326 -242 -334 0 -4 -4 -10 -9 -12
-12 -4 -81 -96 -81 -108 0 -6 -4 -10 -9 -10 -5 0 -21 -20 -35 -45 -15 -25 -31
-45 -36 -45 -6 0 -10 -7 -10 -15 0 -8 -3 -15 -7 -15 -5 0 -21 -20 -36 -45 -16
-25 -33 -45 -38 -45 -5 0 -9 -5 -9 -11 0 -6 -6 -17 -13 -24 -6 -8 -64 -84
-127 -170 l-114 -155 -968 0 -968 0 0 -500 0 -500 7500 0 7500 0 0 500 0 500
-829 0 -829 0 -34 43 c-18 23 -38 47 -44 54 -7 7 -34 42 -60 78 -26 36 -51 65
-56 65 -4 0 -8 7 -8 15 0 8 -4 15 -8 15 -4 0 -15 12 -24 28 -10 15 -29 41 -44
57 -14 17 -34 41 -43 55 -18 28 -47 64 -74 92 -9 10 -17 23 -17 28 0 6 -3 10
-7 10 -5 0 -19 16 -32 35 -13 19 -32 45 -43 57 -11 13 -41 51 -66 85 -25 35
-49 63 -54 63 -4 0 -8 7 -8 15 0 8 -4 15 -8 15 -4 0 -15 12 -24 28 -10 15 -29
41 -43 57 -15 17 -48 58 -73 93 -25 34 -49 62 -54 62 -4 0 -8 4 -8 10 0 10
-57 89 -84 115 -8 8 -36 44 -62 80 -26 36 -51 65 -56 65 -4 0 -8 5 -8 11 0 11
-69 102 -82 107 -5 2 -8 10 -8 17 0 7 -4 15 -9 17 -5 2 -49 55 -96 118 -48 63
-90 117 -94 120 -4 3 -51 64 -105 135 -54 72 -102 132 -107 133 -5 2 -9 8 -9
12 0 5 -14 24 -30 42 l-31 33 26 3 c15 2 33 -2 42 -9 9 -8 44 -13 87 -14 64 0
74 3 101 27 16 16 33 28 37 28 5 0 8 7 8 15 0 8 4 15 10 15 5 0 12 17 16 37 4
21 10 43 14 48 5 6 11 33 15 60 4 28 11 55 15 60 5 6 11 31 15 58 4 26 11 50
15 52 5 3 12 30 15 60 4 31 11 58 15 60 5 3 12 30 15 60 4 30 11 55 15 55 5 0
12 25 15 55 4 30 11 58 15 60 5 3 12 30 15 60 4 31 11 58 15 60 5 3 12 30 15
60 4 30 11 55 15 55 4 0 11 27 15 60 4 33 11 60 16 60 5 0 9 12 10 28 1 15 4
38 8 51 6 23 7 23 48 -15 71 -67 95 -85 112 -83 9 1 31 1 49 0 27 -1 32 -5 32
-26 0 -16 -6 -25 -15 -25 -8 0 -15 -4 -15 -10 0 -5 5 -10 10 -10 13 0 50 -37
43 -43 -2 -3 9 -8 26 -12 28 -6 31 -10 32 -48 1 -33 2 -37 8 -18 6 24 7 24 61
-24 30 -27 66 -58 79 -70 13 -11 29 -25 36 -32 11 -10 45 -40 199 -173 16 -14
40 -36 55 -50 14 -14 62 -56 106 -95 44 -38 87 -76 96 -85 9 -8 40 -36 70 -62
30 -25 79 -68 109 -94 30 -27 66 -57 79 -69 13 -11 35 -31 50 -45 15 -14 56
-50 91 -80 76 -64 112 -95 148 -131 15 -14 65 -58 112 -98 47 -40 86 -77 88
-82 2 -5 7 -9 12 -9 4 0 32 -22 61 -50 33 -31 66 -52 86 -56 28 -5 33 -11 33
-34 0 -19 7 -30 25 -38 27 -13 32 -27 13 -35 -7 -3 -1 -6 15 -6 15 -1 27 -5
27 -11 0 -5 5 -10 10 -10 6 0 21 -10 33 -23 12 -12 47 -43 77 -68 30 -26 72
-63 93 -83 21 -20 41 -36 43 -36 3 0 15 -10 27 -23 12 -13 58 -54 102 -92 83
-72 126 -109 154 -135 9 -9 46 -42 84 -74 l67 -58 0 971 c0 856 -2 971 -15
971 -8 0 -15 4 -15 8 0 5 -11 14 -24 20 -14 6 -62 35 -108 64 -46 29 -92 58
-103 65 -26 16 -149 93 -183 115 -15 10 -34 21 -42 25 -8 3 -17 9 -20 13 -3 3
-49 33 -103 65 -54 33 -110 68 -125 77 -15 9 -37 23 -48 30 -32 19 -161 100
-192 120 -15 10 -34 21 -42 25 -8 4 -34 20 -56 35 -23 15 -46 28 -52 28 -6 0
-12 3 -14 8 -4 8 -65 52 -73 52 -3 0 -37 20 -75 45 -38 25 -73 45 -79 45 -5 0
-11 3 -13 8 -4 8 -65 52 -73 52 -3 0 -37 20 -75 45 -38 25 -73 45 -79 45 -5 0
-11 3 -13 8 -2 4 -36 28 -76 52 -40 25 -85 53 -100 62 -15 9 -37 23 -49 30
-22 13 -142 88 -191 120 -15 10 -34 21 -42 25 -8 3 -17 9 -20 13 -3 3 -38 26
-79 50 -40 25 -85 53 -100 62 -14 10 -35 22 -46 28 -50 24 -57 36 -49 87 3 26
10 53 14 58 5 6 11 33 15 60 4 28 11 55 15 60 5 6 11 31 15 58 4 26 11 50 15
52 5 3 12 30 15 60 4 31 11 57 15 60 5 3 11 29 15 58 4 28 11 57 15 62 15 19
28 142 20 179 -8 38 -54 106 -71 106 -12 0 -49 37 -49 50 0 6 5 10 10 10 6 0
10 20 10 44 0 36 -6 49 -32 76 -29 28 -38 31 -77 27 -26 -3 -48 -11 -53 -21
-8 -15 -12 -15 -39 1 l-30 18 68 13 c37 7 100 18 138 24 39 6 73 15 76 20 8
13 144 15 160 2 8 -6 43 -21 79 -33 36 -12 79 -28 95 -36 76 -34 104 -45 119
-45 11 0 16 -9 16 -30 0 -25 41 -80 60 -80 3 0 17 11 32 25 31 29 45 30 90 11
18 -8 53 -22 78 -31 25 -10 59 -24 77 -31 17 -8 37 -14 45 -14 8 0 18 -4 23
-8 6 -4 37 -18 70 -31 33 -12 78 -30 100 -38 22 -8 58 -22 80 -30 22 -9 54
-22 72 -29 17 -8 36 -14 42 -14 11 0 69 -24 113 -46 14 -8 35 -14 45 -14 10 0
23 -4 28 -8 11 -8 62 -29 285 -112 47 -17 94 -35 105 -40 11 -5 47 -19 80 -31
33 -11 74 -27 90 -34 58 -26 192 -75 206 -75 8 0 23 -7 33 -15 48 -36 46 -63
46 750 l0 765 -30 0 c-17 0 -59 6 -93 14 -34 8 -105 22 -157 31 -224 38 -268
46 -314 57 -26 6 -74 14 -105 18 -58 8 -137 22 -256 45 -38 7 -113 20 -165 29
-197 34 -266 47 -310 56 -25 6 -72 14 -105 19 -33 5 -90 15 -127 22 -62 12
-71 11 -105 -6 -21 -11 -41 -21 -45 -23 -9 -5 -39 54 -31 62 4 3 -1 6 -10 6
-10 0 -17 8 -17 19 0 12 -13 25 -35 35 -68 33 -82 86 -40 148 21 31 24 44 19
85 -4 26 -10 53 -14 58 -4 6 -11 39 -15 75 -4 36 -11 70 -15 75 -4 6 -11 39
-15 75 -4 36 -11 70 -15 75 -4 6 -11 37 -15 70 -4 33 -10 65 -15 70 -4 6 -11
39 -14 75 -4 36 -11 69 -15 75 -5 5 -11 36 -15 68 l-6 57 67 1 c38 0 111 2
163 4 52 1 296 6 542 10 l447 7 22 24 c29 31 56 30 71 -1 16 -35 28 -31 22 8
-7 47 23 96 80 126 46 26 47 26 61 7 23 -30 18 -43 -22 -63 -44 -22 -63 -47
-46 -64 8 -8 22 -5 52 11 63 31 120 25 146 -17 l20 -33 225 3 225 2 3 150 2
150 -41 1 c-24 1 -52 10 -67 21 -43 32 -122 142 -122 170 0 78 106 142 164
100 27 -20 5 -57 -33 -57 -27 0 -61 -26 -61 -47 0 -14 74 -104 95 -116 11 -6
24 -3 41 7 22 15 24 22 24 99 -1 90 2 85 -104 211 -39 47 -42 71 -9 83 12 5
30 -8 65 -48 l48 -54 0 383 c0 273 -3 382 -11 382 -6 0 -43 -7 -83 -16 -72
-16 -131 -28 -286 -59 -47 -9 -114 -23 -150 -30 -36 -8 -101 -21 -145 -30 -44
-9 -100 -21 -124 -26 -23 -5 -80 -17 -125 -25 -44 -9 -99 -19 -121 -24 -90
-19 -252 -51 -280 -56 -37 -6 -155 -32 -215 -46 -72 -18 -120 -21 -120 -9 0
26 -35 51 -72 51 -44 0 -68 -21 -68 -59 0 -25 -5 -29 -57 -44 -67 -18 -140
-33 -238 -48 -38 -6 -77 -15 -86 -20 -25 -13 -36 7 -44 81 -4 36 -12 68 -18
71 -6 4 -12 78 -15 178 -5 164 -6 171 -26 175 -56 11 -161 26 -254 37 -76 10
-105 10 -113 2 -9 -9 -18 -8 -36 4 -31 21 -113 13 -141 -13 -11 -10 -29 -35
-39 -54 -18 -33 -24 -36 -84 -43 -35 -4 -73 -11 -84 -16 -11 -6 -47 -13 -80
-16 -33 -4 -64 -10 -70 -15 -5 -4 -35 -10 -65 -14 -38 -4 -50 -3 -40 3 17 12
19 109 2 120 -5 3 -12 16 -16 28 -4 12 -16 25 -26 28 -28 9 -13 32 26 39 19 4
34 11 34 16 0 4 15 12 33 15 17 4 38 12 45 18 8 6 46 10 87 9 69 -3 74 -1 104
28 17 18 31 38 31 45 0 7 14 16 30 20 17 4 30 11 30 16 0 5 8 9 18 9 9 0 29 6
44 14 15 8 40 17 57 21 17 4 31 10 31 15 0 5 14 11 31 15 17 4 42 13 57 21 15
8 33 14 40 14 6 0 12 5 12 10 0 6 6 10 13 10 7 0 24 13 37 30 14 16 29 29 33
30 5 0 25 7 45 16 21 9 46 20 57 24 11 5 40 17 65 28 25 10 65 27 90 37 25 9
63 25 85 36 39 18 40 18 47 0 9 -26 48 -51 79 -51 40 0 79 42 79 85 0 21 -5
35 -12 35 -15 0 20 17 102 49 30 12 65 26 78 32 12 5 32 13 45 18 12 6 63 26
112 46 50 20 104 42 120 49 17 8 50 21 75 31 43 17 71 28 143 59 17 8 57 24
87 35 30 12 64 26 75 31 82 34 126 50 139 50 9 0 16 5 16 10 0 6 7 10 15 10 8
0 43 13 77 28 98 45 117 52 141 53 20 1 19 2 -5 12 -19 7 -28 18 -28 34 0 20
5 23 34 23 33 0 35 2 38 38 3 32 6 37 28 37 21 0 26 -5 28 -32 2 -18 -2 -41
-8 -53 -6 -11 -9 -20 -7 -20 2 0 41 16 88 36 109 46 105 44 239 99 63 25 129
52 145 60 17 7 50 20 75 30 25 9 63 26 86 36 23 10 46 19 53 19 8 0 11 204 11
784 l0 785 -22 -12 c-13 -7 -42 -25 -65 -40 -24 -15 -45 -27 -48 -27 -8 0 -69
-44 -73 -52 -2 -5 -9 -8 -16 -8 -7 0 -31 -12 -53 -27 -52 -37 -74 -51 -98 -63
-11 -6 -32 -18 -47 -28 -15 -9 -60 -37 -100 -62 -40 -24 -109 -67 -153 -95
-44 -27 -89 -55 -100 -62 -11 -6 -60 -37 -110 -68 -49 -31 -99 -61 -110 -68
-11 -7 -49 -30 -85 -53 -36 -22 -72 -44 -80 -47 -8 -4 -49 -29 -90 -57 -41
-27 -87 -55 -102 -61 -16 -6 -28 -14 -28 -19 0 -4 -8 -10 -17 -14 -10 -3 -30
-14 -45 -23 -15 -10 -82 -52 -148 -93 -67 -41 -134 -83 -148 -92 -15 -10 -36
-22 -47 -28 -11 -6 -32 -18 -47 -28 -15 -9 -60 -37 -100 -62 -40 -24 -74 -48
-76 -52 -2 -5 -8 -8 -13 -8 -6 0 -40 -19 -77 -42 -37 -24 -76 -48 -87 -55 -11
-7 -50 -30 -87 -52 -36 -23 -68 -41 -70 -41 -2 0 -3 13 -4 29 -1 38 -25 61
-62 61 -33 0 -72 -36 -72 -66 1 -28 35 -64 62 -65 15 0 18 -3 8 -6 -8 -3 -45
-26 -82 -49 -37 -24 -70 -44 -73 -44 -5 0 -64 -39 -75 -50 -16 -16 -72 -40
-81 -35 -16 11 -74 -4 -98 -24 -11 -10 -21 -28 -21 -39 0 -14 -21 -34 -70 -66
-39 -26 -81 -52 -95 -58 -14 -6 -25 -15 -25 -20 0 -4 -5 -8 -11 -8 -6 0 -34
-16 -63 -35 -29 -19 -58 -35 -65 -35 -6 0 -11 -4 -11 -10 0 -5 -16 -12 -35
-16 -19 -3 -35 -10 -35 -14 0 -5 -18 -11 -40 -15 -22 -4 -40 -11 -40 -15 0 -5
-13 -11 -30 -15 -16 -4 -30 -10 -30 -15 0 -4 -18 -10 -40 -14 -22 -3 -40 -10
-40 -15 0 -5 -16 -12 -35 -15 -19 -4 -35 -11 -35 -16 0 -6 -8 -10 -17 -10 -10
0 -30 -7 -45 -14 l-28 -15 0 58 c0 46 -5 63 -22 83 -35 37 -74 58 -109 58 -34
0 -108 -29 -109 -43 0 -5 -7 -16 -16 -24 -12 -13 -15 -32 -12 -84 3 -58 7 -71
31 -93 35 -32 34 -43 -3 -51 -16 -4 -30 -10 -30 -15 0 -4 -18 -10 -40 -14 -22
-3 -40 -11 -40 -16 0 -14 -47 -13 -52 1 -2 6 -25 13 -50 16 -36 4 -57 0 -90
-17 -47 -25 -63 -40 -84 -88 -8 -19 -26 -37 -42 -42 -15 -6 -35 -15 -45 -20
-16 -10 -17 -4 -11 77 4 49 11 96 15 105 5 9 9 25 9 36 0 10 9 30 21 43 19 21
21 33 16 106 l-5 82 -55 65 c-88 104 -85 164 10 224 27 16 59 39 72 51 13 11
27 21 31 21 3 0 14 16 23 35 9 19 31 44 49 54 18 11 56 40 83 66 28 26 68 61
89 79 40 33 40 34 23 59 -20 31 -22 57 -4 81 12 17 15 15 38 -18 14 -21 30
-34 37 -31 8 3 19 5 24 5 6 0 9 3 6 6 -3 3 15 24 40 47 26 23 65 60 88 82 23
22 64 60 91 85 142 130 183 171 183 184 0 18 39 48 52 40 5 -3 31 16 57 43 27
26 71 68 98 93 118 108 270 248 304 280 214 200 291 270 302 270 4 0 8 -10 8
-22 1 -13 4 -72 8 -133 l6 -109 190 -27 c105 -15 193 -25 198 -22 19 11 -5
385 -27 401 -6 5 -51 14 -101 21 -49 7 -103 15 -118 18 l-28 5 33 31 c19 18
63 59 99 92 103 95 259 239 324 300 51 47 61 52 67 38 5 -14 7 -12 7 9 1 34
47 87 111 128 28 18 50 39 50 46 0 8 -10 28 -22 45 -23 31 -20 51 14 72 12 8
22 2 45 -23 l31 -34 38 33 c40 34 221 201 303 279 38 36 44 46 34 60 -8 14 -7
27 4 52 l14 34 23 -29 23 -29 32 32 c22 22 31 38 26 51 -3 10 -1 31 5 46 l11
28 23 -22 24 -22 63 58 c35 32 85 79 112 106 26 26 50 47 52 47 2 0 26 21 53
48 78 75 233 216 248 225 7 4 15 21 19 38 5 21 11 29 22 25 14 -6 26 3 107 79
17 17 81 75 141 129 61 55 127 117 147 138 21 21 40 38 43 38 2 0 19 15 38 33
18 17 61 58 95 90 l62 59 0 284 0 284 -977 0 -978 0 -27 -34 c-16 -19 -28 -40
-28 -45 0 -6 -4 -11 -9 -11 -5 0 -22 -20 -38 -45 -15 -25 -31 -45 -35 -45 -5
0 -8 -7 -8 -15 0 -8 -4 -15 -8 -15 -4 0 -21 -20 -36 -45 -16 -25 -33 -45 -37
-45 -5 0 -9 -6 -9 -14 0 -8 -3 -16 -8 -18 -4 -1 -25 -27 -46 -57 -21 -30 -43
-59 -47 -65 -42 -50 -229 -308 -229 -315 0 -5 -4 -11 -9 -13 -12 -4 -81 -96
-81 -108 0 -6 -4 -10 -9 -10 -5 0 -22 -20 -38 -45 -15 -25 -31 -45 -35 -45 -5
0 -8 -7 -8 -15 0 -8 -3 -15 -7 -15 -5 0 -21 -20 -36 -45 -16 -25 -33 -45 -38
-45 -5 0 -9 -6 -9 -14 0 -8 -3 -16 -7 -18 -5 -1 -19 -19 -33 -39 -14 -20 -35
-49 -48 -65 -88 -113 -242 -325 -242 -333 0 -5 -4 -11 -9 -13 -12 -4 -81 -96
-81 -108 0 -6 -4 -10 -9 -10 -5 0 -22 -20 -38 -45 -15 -25 -31 -45 -35 -45 -5
0 -8 -6 -8 -14 0 -8 -4 -16 -8 -18 -5 -1 -23 -24 -40 -50 -18 -25 -38 -52 -44
-60 -7 -7 -25 -31 -41 -54 -15 -22 -35 -49 -45 -60 -9 -10 -30 -38 -46 -61
-16 -24 -33 -43 -37 -43 -5 0 -9 -4 -9 -10 0 -8 -172 -246 -226 -313 -8 -9
-14 -22 -14 -27 0 -6 -4 -10 -9 -10 -5 0 -22 -20 -38 -45 -15 -25 -31 -45 -35
-45 -5 0 -8 -7 -8 -15 0 -8 -4 -15 -9 -15 -4 0 -22 -21 -38 -47 -17 -27 -38
-57 -47 -68 -55 -67 -326 -437 -326 -445 0 -6 -4 -10 -9 -10 -5 0 -22 -20 -38
-45 -15 -25 -31 -45 -35 -45 -5 0 -8 -7 -8 -15 0 -8 -4 -15 -9 -15 -5 0 -22
-20 -38 -45 -15 -25 -31 -45 -35 -45 -5 0 -8 -7 -8 -15 0 -8 -3 -15 -7 -15 -5
0 -21 -20 -36 -45 -16 -25 -33 -45 -38 -45 -5 0 -9 -5 -9 -10 0 -6 -5 -16 -10
-23 -6 -7 -45 -58 -86 -114 -71 -95 -79 -103 -110 -103 -27 0 -34 4 -34 20 0
11 5 20 11 20 7 0 9 28 6 83 -5 95 -25 197 -38 197 -5 0 -9 7 -9 16 0 18 -39
87 -52 92 -4 2 -8 9 -8 16 0 13 -76 93 -110 116 -12 8 -28 20 -35 27 -7 7 -24
15 -39 19 -14 3 -26 10 -26 15 0 5 -6 9 -13 9 -17 0 -45 34 -53 65 -3 14 -10
25 -15 25 -5 0 -9 7 -9 15 0 9 -7 18 -15 21 -8 4 -15 11 -15 17 0 6 -13 25
-29 42 l-30 30 51 105 c43 90 118 246 176 370 10 19 23 41 30 48 6 7 12 18 12
24 0 6 34 81 76 167 41 86 89 186 107 223 30 63 34 68 58 62 33 -6 59 17 59
53 0 16 -7 27 -20 30 -11 3 -20 7 -20 10 0 5 46 101 190 398 48 99 113 234
145 300 63 132 105 220 253 525 55 113 123 255 152 315 29 61 70 146 92 190
22 44 44 90 49 103 l9 22 -794 0 -794 0 -6 -30 c-3 -17 -17 -46 -31 -64 -14
-18 -29 -53 -34 -77 -15 -76 -33 -143 -47 -177 -8 -18 -14 -42 -14 -53 0 -12
-7 -42 -14 -68 -17 -54 -38 -129 -61 -221 -17 -68 -38 -143 -60 -220 -7 -25
-20 -74 -30 -110 -9 -36 -23 -87 -31 -114 -8 -26 -14 -55 -14 -63 0 -9 -7 -38
-16 -67 -28 -89 -38 -124 -89 -326 -9 -36 -23 -87 -31 -115 -31 -107 -67 -242
-74 -275 -4 -19 -15 -62 -25 -95 -9 -33 -23 -82 -30 -110 -7 -27 -23 -86 -35
-130 -13 -44 -26 -96 -30 -115 l-8 -35 -1 42 c0 23 -5 44 -10 47 -4 3 -11 24
-15 46 -3 22 -10 40 -14 40 -4 0 -13 12 -19 28 -23 51 -89 128 -138 160 -42
26 -125 62 -144 62 -11 0 -23 5 -26 10 -3 6 -46 10 -96 10 -53 0 -89 -4 -89
-10 0 -16 -37 -12 -44 5 -3 8 -12 15 -20 15 -7 0 -16 7 -20 15 -3 10 1 15 12
15 10 0 26 10 36 21 21 25 26 91 8 97 -7 2 -12 9 -12 15 0 15 -46 37 -74 37
-46 -1 -89 -62 -79 -113 4 -20 1 -27 -11 -27 -9 0 -16 5 -16 10 0 6 -7 10 -16
10 -15 0 -16 10 -11 78 4 42 9 88 11 101 3 13 10 85 16 161 5 76 12 145 15
152 5 14 27 267 29 330 1 20 4 40 9 44 4 4 7 20 7 35 0 28 -1 28 -43 23 -39
-6 -46 -3 -65 21 -12 15 -22 36 -22 47 0 45 61 118 117 139 13 5 28 21 33 35
9 22 6 32 -14 59 l-25 32 23 22 c26 25 40 102 56 301 5 69 14 157 19 195 6 39
11 89 11 113 l0 42 -721 0 -722 0 7 -87 c3 -49 10 -119 16 -158 8 -64 28 -257
36 -365 4 -49 27 -280 44 -455 6 -60 15 -162 20 -225 5 -63 14 -153 20 -200 5
-47 15 -137 21 -200 6 -63 13 -136 16 -162 5 -46 5 -48 -21 -48 -19 0 -26 5
-26 19 0 35 -43 71 -84 71 -49 0 -76 -25 -76 -72 0 -29 -4 -38 -17 -38 -21 -1
-74 -26 -118 -55 -42 -28 -135 -125 -135 -140 0 -7 -12 -16 -26 -19 -41 -11
-57 -34 -62 -90 -3 -39 0 -56 12 -68 9 -9 13 -24 10 -33 -8 -21 15 -207 28
-222 8 -10 15 -9 34 5 29 21 29 27 3 64 -15 21 -18 33 -11 40 15 15 28 3 89
-77 26 -36 52 -65 56 -65 4 0 17 9 29 20 12 11 17 20 12 20 -9 0 -41 57 -63
113 -6 15 -11 43 -11 62 0 40 30 145 42 145 4 0 8 6 8 14 0 24 97 101 151 120
67 24 147 17 214 -18 l50 -27 15 23 c28 42 82 98 96 98 8 0 14 4 14 9 0 9 49
23 123 38 57 11 163 -32 219 -90 62 -62 80 -115 76 -219 -2 -51 -8 -92 -14
-96 -6 -4 -14 -16 -18 -27 -10 -29 -35 -56 -87 -94 -45 -31 -46 -34 -36 -64 5
-18 14 -40 18 -49 20 -39 7 -120 -29 -196 -51 -107 -181 -166 -309 -142 -55
10 -59 9 -73 -12 -56 -83 -133 -128 -235 -135 -59 -5 -79 -2 -119 17 -27 12
-60 33 -75 46 -14 13 -29 24 -33 24 -5 0 -8 7 -8 15 0 8 -4 15 -8 15 -5 0 -18
20 -30 44 -30 59 -31 178 -2 242 11 24 25 44 30 44 17 0 16 35 -3 63 -22 32
-25 32 -55 7 l-24 -20 21 -29 c48 -67 9 -70 -44 -3 -48 60 -94 102 -111 102
-8 0 -14 4 -14 9 0 5 -15 13 -32 16 -18 4 -39 12 -47 19 -9 7 -54 11 -118 10
-66 0 -103 3 -103 10 0 6 -14 56 -30 111 -17 55 -38 125 -46 155 -9 30 -22 73
-29 95 -11 38 -26 88 -61 213 -24 81 -44 150 -59 197 -20 61 -27 103 -16 85 8
-12 14 -12 33 -1 30 16 55 54 39 59 -6 2 -11 10 -11 17 0 28 -79 30 -81 2 0
-16 -33 73 -54 148 -9 33 -23 78 -30 100 -7 22 -20 69 -30 105 -9 36 -23 80
-31 98 -8 18 -14 41 -14 52 0 11 -6 37 -14 57 -7 21 -21 65 -31 98 -9 33 -23
80 -31 105 -7 25 -20 70 -28 100 -46 165 -88 307 -97 322 -5 10 -9 27 -9 38 0
11 -6 37 -14 57 -7 21 -21 65 -31 98 -9 33 -24 79 -32 103 l-15 42 -819 0
-819 0 94 -182 c52 -101 134 -262 182 -358 48 -96 90 -177 94 -180 4 -3 11
-16 15 -30 4 -14 10 -27 14 -30 3 -3 62 -117 131 -255 68 -137 126 -252 127
-254 2 -3 9 1 15 7 9 9 7 17 -10 35 -25 27 -27 42 -8 75 l12 23 28 -35 c31
-41 45 -44 71 -16 l18 20 24 -22 23 -22 -20 -21 c-11 -12 -20 -25 -20 -30 0
-5 19 -29 42 -52 42 -43 65 -51 96 -34 13 7 25 4 42 -10 l25 -19 -33 -30 c-18
-17 -43 -30 -56 -30 -27 0 -85 37 -138 87 -21 20 -41 32 -48 28 -6 -4 -20 1
-31 11 -10 9 -22 14 -26 11 -3 -4 -1 -7 5 -7 6 0 13 -14 17 -30 4 -17 10 -28
15 -25 5 3 11 -8 15 -25 5 -24 12 -30 32 -30 36 0 83 -51 83 -90 0 -17 -4 -40
-10 -50 -7 -14 -2 -33 24 -81 19 -35 74 -143 122 -239 48 -96 91 -177 95 -180
4 -3 11 -18 14 -33 4 -15 11 -27 16 -27 5 0 9 -6 9 -12 0 -7 7 -26 16 -43 9
-16 79 -154 156 -305 77 -151 144 -279 149 -284 12 -13 11 -26 -2 -26 -6 0
-24 -13 -40 -29 -24 -25 -29 -37 -29 -80 0 -28 5 -51 10 -51 6 0 10 -7 10 -15
0 -9 8 -19 18 -22 9 -4 20 -11 23 -16 10 -14 101 -10 111 5 6 7 11 9 14 3 2
-5 11 -21 18 -35 47 -85 106 -212 101 -219 -2 -5 -21 -12 -40 -15 -19 -4 -35
-11 -35 -15 0 -5 -11 -12 -25 -15 -14 -4 -25 -11 -25 -16 0 -6 -5 -10 -12 -10
-10 0 -44 -33 -145 -145 -18 -20 -33 -42 -33 -50 0 -8 -4 -15 -10 -15 -6 0
-10 -47 -10 -120 0 -66 4 -120 9 -120 4 0 11 -19 14 -42 5 -39 32 -106 46
-118 34 -27 54 -111 31 -125 -5 -3 -10 -14 -10 -24 0 -10 -12 -27 -27 -36 -41
-26 -61 -50 -69 -80 -3 -14 -10 -25 -15 -23 -14 5 -119 151 -119 165 0 7 6 13
13 13 25 0 77 83 77 125 0 52 -60 125 -114 139 -42 10 -90 -3 -125 -34 l-31
-29 -47 65 c-27 35 -51 64 -55 64 -5 0 -8 7 -8 15 0 8 -4 15 -9 15 -5 0 -4 14
2 30 6 17 15 30 19 30 4 0 8 20 8 45 0 25 -3 45 -8 45 -4 0 -12 10 -17 23 -6
12 -20 26 -32 32 -13 5 -23 13 -23 17 0 12 -68 9 -89 -3 -15 -10 -22 -8 -40
10 -11 11 -21 25 -21 30 0 5 -4 11 -10 13 -19 6 -120 152 -120 173 0 25 -59
95 -80 95 -8 0 -26 16 -40 36 -14 19 -33 45 -43 57 -11 12 -40 50 -65 85 -25
34 -49 62 -54 62 -4 0 -8 7 -8 15 0 8 -4 15 -9 15 -5 0 -19 16 -31 35 -12 20
-27 41 -34 48 -7 6 -36 44 -65 82 -30 39 -57 71 -62 73 -5 2 -9 10 -9 18 0 8
-4 14 -10 14 -5 0 -16 12 -24 28 -8 15 -27 41 -41 57 -15 17 -48 58 -73 93
-25 34 -49 62 -54 62 -4 0 -8 5 -8 11 0 17 -30 41 -45 36 -8 -4 -34 21 -69 69
-35 45 -64 74 -75 74 -21 0 -71 -36 -71 -51 0 -6 28 -46 62 -90 l62 -80 -26
-25 -25 -26 -55 64 c-82 94 -168 209 -168 222 0 6 12 20 27 30 29 21 23 25 69
-39 14 -19 15 -19 25 -2 6 10 32 32 57 48 25 16 41 29 34 29 -7 0 -12 7 -12
15 0 8 -4 15 -8 15 -4 0 -15 12 -24 28 -10 15 -29 41 -43 57 -15 17 -48 58
-73 93 -25 34 -49 62 -54 62 -4 0 -8 7 -8 15 0 8 -4 15 -8 15 -4 0 -15 12 -24
28 -9 15 -25 36 -35 47 -10 11 -48 58 -83 105 -35 47 -66 87 -69 90 -4 3 -19
23 -36 45 -16 22 -35 45 -41 52 -7 7 -34 42 -60 78 -26 36 -51 65 -56 65 -4 0
-8 7 -8 15 0 8 -4 15 -8 15 -4 0 -15 12 -24 28 -10 15 -29 41 -43 57 -15 17
-48 58 -73 93 -25 34 -49 62 -54 62 -4 0 -8 7 -8 15 0 8 -3 15 -7 15 -5 0 -19
16 -32 35 -13 19 -32 45 -43 57 -11 13 -41 51 -66 86 -25 34 -49 62 -54 62 -4
0 -8 5 -8 11 0 10 -48 74 -92 123 -10 11 -30 38 -45 60 -15 23 -30 43 -33 46
-3 3 -30 37 -60 75 -30 39 -58 72 -62 73 -5 2 -8 10 -8 18 0 8 -4 14 -8 14 -5
0 -30 29 -56 65 -26 36 -53 71 -60 78 -6 7 -22 28 -35 47 -13 19 -29 40 -35
45 -6 6 -26 29 -44 53 l-34 42 -839 0 -839 0 0 -445z m5081 -296 c-6 -38 -9
-74 -6 -79 3 -5 18 -11 33 -15 15 -3 56 -16 91 -29 l63 -23 -31 -22 -31 -23
-63 20 c-34 11 -66 16 -71 11 -5 -5 2 -23 18 -44 30 -38 29 -57 -3 -74 -17
-10 -30 3 -118 122 -147 195 -137 177 -111 204 12 13 25 23 28 23 4 0 31 -34
59 -75 28 -41 55 -77 60 -79 4 -3 11 23 14 57 6 53 11 66 39 91 19 17 33 25
36 18 2 -7 -1 -44 -7 -83z m-183 -122 c17 -20 -13 -57 -45 -57 -32 0 -63 -26
-63 -52 0 -27 70 -108 94 -108 27 0 56 29 56 55 0 16 8 25 25 29 34 9 45 1 45
-32 0 -62 -65 -122 -131 -122 -26 0 -44 12 -96 63 -56 57 -63 68 -63 104 0 45
25 84 74 114 36 22 89 25 104 6z m-286 -221 c16 -23 16 -24 -7 -46 -31 -29
-31 -38 0 -70 l25 -26 -26 -25 -26 -24 -34 37 c-45 49 -46 89 -3 141 35 43 48
45 71 13z m171 -41 c15 -19 31 -49 34 -68 4 -28 0 -40 -27 -70 -37 -42 -50
-45 -75 -17 -18 20 -18 21 10 50 l29 30 -29 30 -29 30 24 25 c13 14 26 25 29
24 3 0 19 -16 34 -34z m3312 -1009 c51 -28 69 -44 97 -87 l17 -27 53 26 c198
96 427 -71 404 -294 -4 -43 -3 -64 4 -64 35 0 124 -88 153 -150 25 -57 27
-170 3 -215 -9 -16 -16 -36 -16 -42 0 -7 -3 -13 -7 -13 -5 0 -17 -14 -28 -30
-11 -16 -26 -30 -32 -30 -7 0 -13 -4 -13 -9 0 -16 -74 -48 -127 -56 -54 -7
-166 9 -171 25 -2 6 -9 10 -16 10 -7 0 -32 20 -56 44 l-43 44 -21 -23 c-44
-47 -98 -66 -189 -66 -95 -1 -135 15 -200 78 -57 55 -77 107 -77 200 0 59 5
87 20 116 l20 38 -35 15 c-42 17 -107 80 -131 126 -24 46 -34 130 -24 195 7
40 20 70 50 109 22 30 47 54 54 54 8 0 16 4 18 9 2 5 23 18 48 30 64 31 175
25 245 -13z m-4950 -173 c4 -16 2 -29 -4 -31 -25 -8 -91 -64 -91 -76 0 -28 21
-28 62 -1 56 37 100 43 127 16 45 -45 17 -132 -61 -191 -50 -36 -73 -38 -82
-7 -5 17 0 27 21 42 43 31 83 72 83 85 0 23 -30 20 -76 -9 -26 -17 -56 -31
-67 -31 -25 0 -77 54 -77 80 0 36 32 81 85 116 60 41 71 42 80 7z m3268 -309
c32 -39 57 -76 57 -83 0 -23 -25 -10 -62 32 l-38 42 27 -57 c21 -45 24 -61 15
-70 -9 -9 -18 -7 -42 10 -39 29 -44 28 -14 -5 13 -14 27 -37 30 -50 4 -13 12
-23 20 -23 8 0 14 -9 14 -21 0 -32 31 -120 56 -161 31 -49 103 -117 131 -125
13 -3 23 -8 23 -12 0 -3 38 -15 85 -26 68 -15 85 -23 85 -37 0 -10 3 -18 8
-18 11 0 75 -62 94 -92 26 -40 48 -108 48 -152 0 -41 -29 -136 -42 -136 -5 0
-8 -6 -8 -13 0 -18 -76 -93 -115 -114 -17 -8 -64 -18 -106 -21 -67 -4 -84 -1
-130 20 -54 25 -129 92 -129 114 0 21 -24 22 -49 3 -13 -11 -31 -19 -40 -19
-10 0 -22 -5 -28 -11 -20 -20 -142 -14 -195 9 -61 27 -120 85 -148 146 -18 41
-21 62 -18 135 3 72 8 93 30 127 26 41 26 41 7 58 -11 9 -28 14 -38 11 -16 -5
-36 13 -125 112 -19 21 -26 38 -22 49 6 15 9 15 31 -6 l25 -23 0 87 c0 66 5
98 20 132 11 24 25 44 30 44 6 0 10 5 10 10 0 13 37 50 50 50 6 0 10 4 10 8 0
21 102 52 169 52 49 0 72 4 81 15 17 21 20 20 80 -25 29 -22 55 -38 57 -37 2
2 -9 32 -23 67 -24 61 -25 65 -8 77 10 7 21 10 24 6 4 -5 32 -40 63 -79z
m1221 40 c9 -3 16 -10 16 -15 0 -5 25 -33 55 -63 31 -31 51 -57 45 -61 -13 -8
-13 -182 0 -190 6 -3 10 -14 10 -23 0 -30 41 -95 89 -143 48 -48 113 -89 143
-89 9 0 20 -5 23 -11 4 -6 43 -9 98 -8 51 1 90 -2 88 -7 -2 -5 -7 -19 -12 -31
-13 -36 -84 -100 -135 -123 -38 -18 -60 -21 -128 -17 -44 2 -91 7 -103 12 -20
6 -23 4 -23 -17 0 -26 -50 -104 -81 -126 -10 -7 -25 -19 -33 -27 -8 -8 -18
-15 -23 -15 -4 0 -21 -7 -38 -16 -34 -18 -173 -24 -183 -7 -4 5 -19 13 -34 17
-16 3 -28 11 -28 16 0 6 -6 10 -14 10 -39 0 -126 154 -126 222 0 12 -17 16
-77 21 -42 3 -79 10 -82 15 -3 5 -17 13 -30 17 -32 10 -91 67 -91 88 0 9 8 18
19 22 10 3 40 26 66 50 l47 45 75 0 c75 0 164 22 191 48 7 6 17 12 22 12 13 0
100 92 100 107 0 7 5 13 10 13 6 0 10 6 10 13 0 6 7 26 17 42 11 21 16 57 17
122 1 73 4 93 16 97 24 6 67 6 84 0z m1326 -387 c52 -19 120 -65 120 -83 0 -4
-11 -17 -25 -30 -14 -13 -25 -28 -25 -34 0 -5 -5 -10 -10 -10 -6 0 -16 -12
-23 -27 -6 -16 -14 -30 -18 -33 -3 -3 -13 -28 -22 -57 -20 -60 -22 -170 -5
-207 10 -23 8 -29 -13 -49 -28 -27 -45 -52 -59 -87 -6 -14 -14 -32 -19 -41 -6
-9 -13 -44 -17 -78 -6 -58 -10 -64 -53 -101 -25 -22 -51 -40 -57 -40 -7 0 -31
19 -55 43 -46 44 -103 76 -176 99 -34 10 -43 18 -43 36 0 40 -56 139 -106 186
-47 45 -116 86 -145 86 -35 0 -38 22 -7 53 42 42 75 98 83 138 4 19 13 43 20
53 14 18 15 18 49 -8 19 -14 49 -29 66 -32 17 -4 33 -11 36 -15 7 -12 190 -11
212 0 9 6 39 20 66 33 28 13 64 37 81 54 37 37 95 128 95 149 0 18 5 18 50 2z
m472 -24 c7 -5 25 -13 39 -16 14 -4 38 -18 53 -32 15 -14 29 -25 32 -25 5 0
44 -39 44 -44 0 -3 11 -17 25 -32 14 -15 28 -39 32 -53 3 -14 9 -30 13 -36 4
-5 11 -25 15 -42 5 -26 12 -33 31 -33 28 0 124 -40 124 -52 0 -4 5 -8 11 -8
19 0 96 -87 117 -132 38 -82 42 -99 42 -168 0 -68 -26 -180 -42 -180 -4 0 -8
-5 -8 -11 0 -17 -50 -77 -91 -110 l-38 -30 -55 14 c-47 13 -64 13 -123 1 -96
-20 -136 -41 -201 -106 -51 -50 -58 -60 -69 -93 -11 -33 -44 -55 -85 -55 -16
0 -28 -4 -28 -10 0 -21 -37 -9 -48 15 -7 14 -17 36 -24 50 -6 14 -12 55 -12
90 0 62 -1 65 -23 65 -59 0 -152 63 -196 132 -23 37 -47 107 -47 142 0 67 39
153 98 214 l43 44 -15 33 c-10 21 -16 60 -16 107 0 83 23 145 68 186 15 14 26
26 24 26 -2 1 0 8 3 18 4 9 22 19 41 22 19 4 34 9 34 11 0 12 -24 55 -32 55
-4 0 -8 6 -8 13 0 14 29 32 65 41 35 8 193 0 207 -11z m-3620 -83 c23 -24 29
-37 25 -58 -4 -20 1 -32 21 -49 25 -22 26 -24 13 -65 -23 -73 -25 -172 -5
-239 10 -32 21 -59 26 -59 4 0 8 -6 8 -13 0 -8 9 -22 20 -32 11 -10 20 -23 20
-29 0 -12 66 -61 114 -86 48 -24 71 -82 71 -177 0 -69 -4 -90 -25 -128 -13
-25 -30 -45 -37 -45 -7 0 -31 13 -55 28 -148 98 -343 78 -466 -48 -24 -25 -50
-57 -58 -72 -11 -22 -22 -28 -48 -28 -31 0 -80 -15 -134 -42 -33 -17 -44 0
-43 71 0 48 7 75 29 120 l29 58 -59 57 c-36 35 -61 68 -65 86 -3 17 -10 33
-14 36 -5 3 -9 16 -9 29 0 14 -9 29 -20 35 -11 6 -20 15 -20 21 0 6 9 13 20
16 12 3 20 14 20 25 0 17 -5 20 -30 14 -35 -6 -70 20 -70 54 0 33 37 62 73 58
42 -4 43 -31 2 -38 -45 -8 -40 -36 5 -31 43 4 52 16 46 63 -5 41 7 56 29 38
11 -9 19 -7 37 13 13 13 34 28 47 32 14 4 33 15 43 25 11 10 28 15 43 12 20
-3 25 0 25 16 0 21 20 47 41 54 9 3 7 12 -5 30 -13 20 -14 28 -5 34 8 5 28
-10 56 -42 31 -35 43 -44 43 -30 0 10 -13 35 -30 56 -35 44 -36 50 -11 50 10
0 26 -11 35 -25 21 -32 32 -32 41 2 4 16 11 34 17 41 12 14 94 52 114 52 21 0
17 14 -11 40 -32 31 -32 43 6 74 40 34 64 33 101 -4z m1226 -250 c9 -5 43 -16
75 -25 36 -10 57 -21 57 -30 0 -30 64 -131 109 -174 74 -70 138 -93 258 -92
66 0 73 -2 73 -19 0 -11 -5 -29 -12 -39 -11 -17 -5 -26 43 -73 76 -73 94 -113
94 -213 0 -90 -13 -126 -69 -191 -58 -68 -105 -88 -211 -88 -121 0 -174 29
-248 134 -15 21 -18 22 -34 9 -41 -33 -72 -43 -144 -47 -65 -4 -83 -1 -131 21
-30 14 -66 36 -79 49 -34 33 -69 85 -69 102 0 8 -4 17 -9 20 -13 8 -21 104
-11 131 5 14 17 25 26 25 16 0 98 36 119 53 61 47 106 104 132 168 21 51 24
220 5 255 -16 30 -5 41 26 24z m1147 -149 c3 -5 19 -12 35 -16 17 -4 30 -11
30 -16 0 -5 5 -9 12 -9 16 0 78 -61 78 -77 0 -7 4 -13 8 -13 12 0 42 -105 42
-145 l0 -35 51 0 c93 0 191 -66 240 -162 31 -61 30 -185 -1 -246 -12 -23 -26
-42 -31 -42 -5 0 -9 -7 -9 -15 0 -8 -3 -15 -8 -15 -4 0 -19 -11 -33 -24 -47
-44 -98 -61 -181 -61 -48 0 -82 5 -90 13 -6 6 -20 12 -29 12 -9 0 -22 7 -29
15 -11 13 -17 8 -47 -30 -18 -25 -40 -45 -48 -45 -8 0 -15 -4 -15 -10 0 -5
-20 -19 -44 -30 -61 -27 -174 -27 -234 0 -52 24 -129 98 -138 134 -3 14 -10
26 -15 26 -16 0 -9 22 14 44 40 39 87 165 87 236 0 71 -45 180 -102 245 -38
43 -45 68 -29 94 10 16 93 9 99 -8 7 -22 27 -9 44 27 27 57 99 127 143 138 14
3 28 10 31 15 7 12 161 12 169 0z m-1768 -276 c8 -5 19 -14 26 -20 23 -19 104
-55 125 -55 11 0 24 -4 27 -10 3 -5 18 -10 32 -10 21 0 24 -4 20 -22 -4 -12
-2 -52 3 -89 11 -80 59 -167 120 -218 38 -32 40 -37 40 -88 0 -174 -198 -316
-360 -259 -56 20 -60 20 -60 0 0 -35 -65 -125 -112 -154 -74 -46 -90 -47 -107
-8 -28 69 -55 118 -63 118 -8 0 6 29 28 60 20 27 46 149 41 187 -9 66 -29 143
-37 143 -16 0 -21 52 -6 64 8 6 24 31 36 56 12 25 26 53 31 63 13 25 12 202
-1 227 -13 25 -10 26 85 34 38 3 72 11 73 16 3 7 12 4 25 -7 12 -10 27 -22 34
-28z m2457 -151 c4 -15 12 -32 19 -39 7 -7 21 -25 32 -40 24 -34 118 -105 138
-105 23 0 36 -23 47 -81 9 -50 36 -117 52 -129 3 -3 -13 -25 -38 -50 -24 -24
-44 -47 -44 -51 0 -4 -12 -10 -26 -13 -31 -8 -124 -67 -124 -78 0 -13 -48 -9
-52 5 -6 16 -255 17 -266 1 -4 -6 -17 -14 -29 -18 -19 -6 -22 -2 -28 34 -4 23
-5 43 -3 44 1 2 28 19 58 37 83 51 128 106 163 199 19 51 24 205 7 215 -5 3
-10 17 -10 30 0 18 7 26 24 31 14 3 27 12 30 20 9 24 43 16 50 -12z m-2948
-174 c24 -11 44 -25 44 -30 0 -6 5 -10 10 -10 13 0 50 -37 50 -50 0 -5 4 -10
8 -10 5 0 19 -24 31 -52 20 -45 22 -65 19 -131 -3 -44 -9 -82 -15 -85 -6 -4
-13 -16 -17 -28 -3 -11 -20 -36 -36 -54 l-29 -33 34 -36 c19 -19 35 -41 35
-47 0 -7 5 -14 10 -16 20 -6 33 -131 21 -199 -6 -35 -15 -65 -21 -67 -5 -2
-10 -10 -10 -17 0 -18 -101 -105 -122 -105 -9 0 -19 -4 -23 -9 -10 -17 -89
-23 -145 -11 -59 12 -165 32 -270 50 -36 7 -69 15 -75 20 -5 4 -31 11 -57 14
-26 4 -50 11 -53 15 -2 5 -25 12 -50 15 -25 4 -45 11 -45 17 0 5 -11 9 -24 9
-13 0 -34 8 -47 19 l-22 18 23 39 c13 21 41 56 61 76 32 31 35 39 23 49 -8 6
-14 18 -14 25 0 8 -4 14 -8 14 -10 0 -42 103 -42 136 0 32 29 121 49 154 20
32 82 88 118 108 15 8 64 17 109 20 l81 4 18 44 c10 24 22 44 27 44 4 0 8 6 8
14 0 17 60 65 110 89 52 25 178 23 236 -3z m3883 3 c3 -6 18 -13 34 -17 15 -3
27 -11 27 -16 0 -6 5 -10 11 -10 15 0 76 -69 94 -106 8 -17 17 -55 21 -85 7
-58 -11 -169 -27 -169 -5 0 -9 -6 -9 -13 0 -8 -9 -22 -19 -31 -21 -19 -18 -46
5 -46 8 0 34 -27 58 -59 34 -47 45 -72 52 -118 4 -32 6 -62 5 -67 -1 -5 -7
-32 -12 -60 -5 -28 -14 -52 -19 -54 -6 -2 -10 -9 -10 -16 0 -7 -15 -26 -32
-43 -33 -31 -71 -42 -153 -46 -38 -2 -40 -1 -49 36 -5 20 -13 37 -18 37 -4 0
-8 6 -8 14 0 21 -102 122 -141 139 -55 25 -58 30 -68 102 -19 128 -86 226
-190 275 -25 12 -54 25 -63 31 -10 5 -31 9 -48 9 -16 0 -30 4 -30 9 0 14 64
51 88 51 11 0 24 5 27 10 3 6 26 10 51 10 37 0 44 3 44 20 0 11 5 20 10 20 6
0 10 7 10 16 0 47 109 164 153 164 7 0 17 4 23 9 5 5 18 11 29 14 30 9 147 0
154 -10z m422 -39 c87 -29 157 -111 190 -222 24 -83 -36 -231 -111 -276 -35
-20 -37 -34 -10 -69 11 -14 20 -31 20 -39 0 -8 4 -18 9 -24 6 -5 11 -28 12
-51 2 -24 5 -43 8 -43 4 0 22 14 41 30 l35 28 -23 24 c-25 28 -28 46 -9 72 13
17 16 16 45 -20 l32 -38 25 24 c24 23 25 23 45 5 l20 -18 -26 -28 -26 -28 37
-46 c48 -58 68 -69 96 -54 17 9 25 8 37 -4 20 -21 9 -45 -29 -61 -49 -21 -75
-9 -132 60 -29 34 -54 63 -57 63 -3 0 -23 -14 -44 -32 l-39 -33 39 -53 c41
-55 74 -72 100 -50 14 11 18 10 30 -6 19 -26 14 -35 -28 -57 -49 -25 -75 -13
-134 62 -29 38 -54 60 -64 58 -9 -2 -24 3 -32 10 -9 7 -23 10 -31 6 -13 -4 1
-28 64 -110 43 -57 79 -106 79 -109 0 -3 -18 -25 -41 -50 -49 -53 -97 -72
-138 -55 -27 11 -151 166 -151 188 0 6 8 16 19 21 16 9 27 -1 81 -74 51 -69
68 -85 89 -85 32 0 71 25 71 46 0 8 -29 53 -66 99 -36 47 -62 90 -58 96 6 11
-26 7 -78 -7 -22 -6 -23 11 -3 50 17 32 21 195 6 224 -6 9 -20 39 -33 67 -13
27 -31 57 -40 67 -17 17 -17 20 2 70 22 57 28 212 11 246 -24 45 -51 103 -51
110 0 13 61 29 113 31 27 0 71 -6 98 -15z m-3025 -151 c39 -35 62 -50 94 -63
14 -6 33 -15 42 -20 23 -13 215 -13 223 0 19 30 89 -15 123 -79 28 -52 39
-132 27 -191 -21 -95 -53 -141 -136 -192 -27 -16 -49 -33 -49 -38 0 -4 7 -21
15 -36 9 -18 15 -57 15 -102 0 -81 -20 -137 -66 -186 l-28 -29 -134 7 c-74 3
-176 6 -225 6 l-89 0 5 28 c4 17 -1 41 -10 58 -8 16 -18 61 -20 100 l-5 70
-51 18 c-69 25 -156 90 -157 119 0 5 -7 15 -15 23 -8 9 -15 24 -15 34 0 10 -4
22 -10 25 -15 9 -12 137 4 158 7 9 16 17 20 17 9 0 46 39 46 48 0 5 9 17 20
27 11 10 20 24 20 32 0 7 4 13 8 13 9 0 31 73 39 133 5 34 8 38 27 31 45 -15
134 -16 177 0 61 21 70 20 105 -11z m1181 -174 c18 -6 41 -8 52 -4 26 8 41
-20 41 -78 0 -35 -9 -58 -38 -103 -86 -134 -94 -250 -25 -380 17 -32 12 -104
-7 -104 -6 0 -10 -6 -10 -13 0 -7 -13 -26 -29 -41 l-28 -27 -377 -6 c-339 -6
-376 -5 -376 10 0 8 6 22 13 29 36 39 62 209 37 248 -7 12 4 28 50 71 33 32
60 64 60 73 0 9 4 16 9 16 5 0 12 12 16 27 3 15 11 31 17 34 5 3 11 48 14 99
4 92 9 113 22 95 14 -19 111 -45 170 -45 89 0 195 41 242 93 23 25 29 28 70
22 25 -3 60 -11 77 -16z m930 -60 c24 -11 43 -24 43 -29 0 -6 6 -10 13 -10 6
0 21 -14 32 -30 11 -16 23 -30 28 -30 4 0 7 -6 7 -12 0 -7 8 -26 17 -43 12
-21 16 -54 16 -112 0 -80 1 -83 23 -83 58 0 165 -82 199 -153 25 -54 17 -64
-62 -72 -37 -3 -86 -10 -108 -16 -40 -9 -116 -18 -340 -38 -66 -6 -160 -16
-210 -21 -49 -5 -125 -12 -167 -15 -76 -6 -77 -6 -90 22 -10 22 -23 29 -58 35
-25 4 -46 12 -48 18 -2 5 -10 10 -17 10 -20 0 -94 88 -117 139 -17 37 -20 59
-16 129 3 46 9 87 15 90 6 4 13 17 17 29 10 31 104 113 138 120 16 3 31 10 34
14 7 12 151 11 159 -1 3 -5 14 -10 24 -10 9 0 32 -11 50 -24 l33 -25 27 32
c35 43 74 76 88 77 6 0 13 5 15 10 11 33 182 32 255 -1z m-2664 -181 c3 -40
12 -86 21 -103 9 -16 16 -33 16 -37 0 -12 74 -94 112 -123 7 -6 31 -19 54 -30
42 -20 49 -33 70 -130 4 -16 11 -36 17 -43 6 -8 6 -16 1 -21 -11 -10 -385 4
-474 18 -36 5 -123 15 -195 21 -71 6 -157 14 -190 18 l-60 7 49 49 c26 27 57
68 68 90 11 23 24 49 29 58 5 10 9 35 9 56 0 38 1 39 58 58 31 10 63 24 71 29
25 18 116 109 129 131 12 17 22 20 65 17 29 -3 70 0 92 5 22 5 43 7 46 6 3 -2
9 -36 12 -76z m5261 -325 c-4 -16 -19 -55 -34 -88 -15 -33 -35 -80 -44 -105
-10 -25 -24 -58 -31 -75 -17 -37 -30 -68 -89 -215 -64 -155 -68 -163 -96 -177
-54 -26 -99 -43 -114 -43 -9 0 -16 -4 -16 -10 0 -5 -6 -10 -12 -10 -7 -1 -31
-9 -53 -20 -22 -11 -46 -19 -53 -20 -7 0 -20 -4 -30 -10 -9 -5 -33 -16 -52
-24 -19 -8 -57 -24 -84 -35 -27 -12 -55 -21 -62 -21 -8 0 -14 -4 -14 -9 0 -5
-14 -13 -32 -16 -18 -4 -39 -11 -48 -16 -42 -22 -91 -41 -96 -36 -3 3 1 18 9
34 8 15 22 48 32 73 9 25 23 59 30 75 16 36 29 66 90 215 56 138 72 176 91
213 8 16 14 34 14 42 0 15 34 39 70 49 24 7 63 23 125 51 77 35 104 45 119 45
9 0 16 4 16 9 0 5 12 12 28 15 15 4 41 13 57 20 17 8 41 19 55 24 14 6 46 20
72 31 26 12 53 21 61 21 7 0 17 3 21 8 6 5 51 25 74 31 1 1 -1 -11 -4 -26z
m-1987 -159 c74 75 111 60 228 -92 46 -60 48 -63 29 -77 -10 -8 -21 -15 -24
-15 -3 0 -32 36 -65 80 -62 82 -88 100 -124 81 -48 -26 -44 -43 29 -138 68
-88 69 -91 50 -108 -19 -17 -20 -16 -47 16 -15 18 -38 45 -50 59 l-22 25 -1
-29 c0 -16 6 -37 14 -45 30 -33 29 -64 -5 -115 -30 -44 -33 -58 -40 -153 -4
-57 -12 -143 -18 -191 -15 -119 -31 -286 -41 -410 -5 -56 -13 -142 -19 -190
-15 -117 -31 -273 -41 -407 -5 -60 -14 -144 -19 -185 -11 -83 -28 -248 -41
-410 -5 -58 -14 -139 -19 -180 -12 -83 -27 -245 -41 -420 -5 -63 -14 -140 -19
-170 -5 -30 -13 -107 -16 -170 l-6 -115 54 -32 c30 -18 58 -33 62 -33 4 0 -10
30 -30 66 -34 61 -36 67 -21 82 15 15 22 11 86 -58 64 -68 83 -100 62 -100 -4
0 -25 18 -47 40 -21 22 -41 38 -43 36 -2 -3 9 -27 24 -55 38 -67 25 -84 -38
-47 -62 36 -68 33 -23 -14 30 -31 36 -43 27 -52 -9 -9 -23 1 -63 45 -28 31
-55 57 -60 57 -18 0 -10 -81 11 -107 29 -37 25 -69 -11 -102 -30 -28 -31 -32
-40 -147 -4 -66 -13 -146 -18 -179 -6 -33 -15 -114 -21 -180 -7 -66 -15 -123
-18 -126 -8 -8 -274 6 -386 21 -44 5 -128 10 -188 10 -130 0 -166 12 -204 69
-23 35 -25 45 -16 66 6 14 15 25 19 25 24 1 35 18 24 39 -17 30 -4 46 20 25
21 -19 18 -29 25 101 10 224 25 484 34 590 11 148 27 406 40 670 5 99 13 241
19 315 13 163 29 443 41 680 5 96 13 236 19 310 12 156 28 416 41 680 5 102
14 242 21 313 11 118 14 127 33 128 105 5 410 37 463 49 24 6 75 13 115 16 45
4 96 16 132 32 42 19 61 23 64 14 5 -15 38 -16 47 -1 4 5 -14 37 -40 70 -46
59 -47 60 -29 80 18 20 19 20 55 -23 l37 -43 29 29z m-4347 -130 c134 -24 267
-44 370 -54 52 -5 120 -14 150 -19 30 -6 95 -12 143 -15 49 -3 95 -10 103 -17
10 -8 14 -38 14 -111 0 -55 5 -141 10 -191 6 -51 15 -180 20 -287 16 -328 30
-569 41 -695 5 -66 14 -203 19 -305 13 -261 29 -522 41 -680 6 -74 14 -216 19
-315 14 -274 29 -526 40 -665 11 -128 33 -588 34 -695 l1 -60 -55 -7 c-30 -3
-131 -12 -225 -18 -93 -6 -228 -17 -300 -24 -71 -7 -133 -10 -137 -6 -4 3 -12
68 -18 145 -6 77 -13 148 -16 158 -6 19 -21 136 -29 227 -3 30 -9 105 -14 165
-12 143 -28 298 -42 407 -6 48 -14 134 -19 190 -10 124 -26 291 -41 410 -6 48
-14 134 -19 190 -12 151 -29 322 -41 408 -5 41 -14 125 -19 185 -13 159 -29
319 -41 405 -5 41 -14 125 -19 185 -14 177 -30 335 -41 415 -5 41 -14 122 -19
180 -14 170 -30 329 -42 412 -12 91 -7 113 25 104 12 -4 60 -14 107 -22z
m-587 -141 c9 -60 19 -152 23 -205 3 -54 10 -100 15 -104 5 -3 9 -24 9 -47 0
-23 7 -82 15 -132 8 -49 15 -108 15 -129 l0 -39 -22 19 c-77 68 -194 113 -298
116 -53 1 -190 -22 -190 -33 0 -4 -12 -10 -26 -13 -74 -19 -193 -129 -239
-221 -45 -91 -55 -124 -62 -198 -9 -105 37 -255 103 -333 14 -16 34 -39 45
-52 25 -29 110 -83 174 -111 59 -25 230 -36 230 -14 0 22 15 26 35 8 19 -17
48 -16 80 4 12 8 11 14 -9 35 -16 17 -21 31 -17 43 7 16 12 13 38 -19 16 -21
35 -38 41 -38 17 0 131 91 157 126 37 49 50 50 50 6 0 -20 7 -89 15 -152 15
-111 29 -223 60 -470 8 -63 21 -169 29 -235 9 -66 19 -150 24 -188 4 -37 6
-70 3 -75 -3 -4 -19 -9 -35 -10 -39 -5 -65 -38 -66 -83 0 -50 48 -87 106 -80
19 2 22 -5 31 -68 5 -39 6 -71 3 -71 -8 0 -40 -72 -53 -119 -16 -59 -20 -182
-6 -241 12 -56 48 -142 62 -148 4 -2 7 -8 7 -14 0 -5 15 -28 34 -51 34 -44 56
-120 56 -200 0 -22 6 -81 14 -131 14 -90 33 -245 43 -341 l4 -50 -43 -12 c-24
-6 -86 -16 -138 -22 -147 -16 -244 -33 -252 -45 -4 -6 -8 -38 -8 -71 0 -33 4
-65 8 -71 4 -6 48 -23 97 -38 50 -16 92 -30 94 -32 2 -2 -7 -12 -19 -22 -23
-18 -25 -18 -83 0 -32 10 -65 18 -73 18 -21 0 -17 -24 7 -46 33 -29 42 -53 28
-70 -6 -8 -15 -14 -20 -14 -4 0 -69 68 -144 152 -93 104 -134 156 -130 167 5
13 4 14 -6 4 -7 -7 -24 -13 -38 -13 -15 0 -55 -6 -91 -14 -36 -8 -110 -22
-165 -31 -55 -9 -121 -21 -147 -26 -26 -6 -71 -14 -100 -19 -29 -5 -94 -16
-145 -25 -101 -19 -91 -21 -233 51 -112 57 -136 70 -148 82 -7 6 -17 12 -22
12 -5 0 -29 13 -52 29 -24 15 -69 45 -100 66 -32 21 -58 42 -58 47 0 4 -6 8
-13 8 -21 0 -377 355 -377 376 0 3 -10 15 -22 27 -29 28 -68 83 -68 96 0 5 -3
11 -7 13 -12 5 -53 66 -53 78 0 5 -4 10 -9 10 -5 0 -14 12 -20 28 -6 15 -25
50 -41 77 -17 28 -39 68 -49 90 -10 22 -28 61 -40 87 -11 26 -21 54 -21 62 0
8 -4 16 -8 18 -10 4 -82 218 -82 245 0 10 -4 23 -9 29 -9 10 -24 82 -41 199
-6 39 -15 95 -20 126 -13 72 -13 404 0 483 5 33 14 90 19 126 20 131 33 195
42 205 5 5 9 16 9 25 0 19 36 142 55 185 7 17 21 53 31 80 10 28 24 61 31 75
7 14 13 31 13 38 0 6 4 12 9 12 5 0 12 14 16 30 4 17 10 30 15 30 5 0 11 14
15 30 4 17 11 30 16 30 5 0 9 6 9 13 0 7 16 36 35 64 19 29 35 57 35 63 0 5 5
10 10 10 6 0 10 6 10 13 0 8 9 22 20 32 11 10 20 24 20 31 0 7 4 14 8 16 5 2
31 33 58 69 99 129 269 300 394 394 36 27 67 52 70 55 12 13 70 50 79 50 5 0
11 4 13 8 4 11 123 82 137 82 6 0 11 4 11 9 0 5 14 12 30 16 17 4 30 10 30 15
0 5 14 11 30 15 17 4 30 11 30 16 0 5 5 9 11 9 7 0 30 9 53 19 76 35 114 51
124 51 5 0 23 7 38 15 16 8 38 15 50 15 11 0 24 4 30 9 5 4 52 18 104 31 52
12 109 26 125 31 17 5 82 14 145 20 63 6 120 12 125 14 6 2 62 4 126 4 l116 1
16 -107z m3138 -363 c-1 -195 -7 -506 -12 -690 -4 -184 -13 -621 -19 -970 -5
-349 -14 -744 -20 -876 -5 -133 -10 -332 -10 -441 0 -110 -3 -288 -7 -396 l-6
-197 -369 0 -368 0 0 109 c0 60 -4 221 -10 357 -5 137 -15 551 -20 919 -6 369
-13 706 -16 750 -2 44 -9 370 -15 725 -6 355 -13 740 -16 856 l-5 210 448 0
448 -1 -3 -355z m2399 232 c0 -4 -4 -12 -8 -17 -4 -6 -18 -37 -31 -70 -25 -65
-46 -115 -68 -157 -7 -14 -13 -34 -13 -44 0 -11 -3 -14 -9 -8 -6 5 -6 35 -1
79 6 39 13 96 16 128 5 55 7 58 47 77 45 21 67 25 67 12z m898 -410 c0 -47 10
-81 30 -101 13 -13 12 -16 -4 -22 -11 -4 -34 -8 -51 -8 -18 -1 -33 -5 -33 -10
0 -5 -34 -12 -75 -16 -41 -4 -75 -10 -75 -15 0 -4 -34 -11 -75 -15 -41 -4 -75
-10 -75 -15 0 -4 -34 -11 -75 -15 -41 -4 -75 -10 -75 -15 0 -4 -31 -11 -70
-14 -38 -4 -72 -11 -75 -17 -10 -14 -42 -11 -49 6 -3 8 0 15 7 15 7 1 30 9 52
20 22 11 48 19 57 20 9 0 18 5 20 10 2 6 21 13 43 16 42 6 105 33 105 45 0 4
14 10 30 14 17 4 30 10 30 15 0 4 18 11 40 15 22 4 40 10 40 15 0 4 16 11 35
14 19 4 35 11 35 16 0 6 8 10 18 10 9 1 35 9 57 20 22 11 48 19 58 20 9 0 17
4 17 9 0 9 20 17 47 20 7 1 12 -14 11 -37z m410 -252 c12 -11 24 -20 27 -20 8
0 69 -44 73 -52 2 -5 8 -8 13 -8 11 0 72 -42 77 -52 2 -5 8 -8 13 -8 9 0 68
-38 79 -51 3 -3 12 -9 20 -13 37 -17 257 -164 265 -175 5 -9 -17 -15 -175 -46
-47 -9 -114 -23 -150 -30 -36 -7 -101 -21 -145 -30 -44 -8 -110 -22 -146 -30
-85 -19 -124 -19 -143 0 -8 8 -17 15 -21 15 -8 0 -69 43 -73 53 -2 4 -8 7 -13
7 -11 0 -72 42 -77 53 -2 4 -8 7 -13 7 -11 0 -72 42 -77 53 -2 4 -8 7 -13 7
-11 0 -72 42 -77 53 -2 4 -8 7 -13 7 -11 0 -72 42 -77 53 -2 4 -8 7 -13 7 -11
0 -72 42 -77 53 -2 4 -11 7 -20 7 -35 0 6 18 68 30 36 7 94 18 130 25 36 8 99
21 140 29 41 8 111 22 155 31 91 19 215 42 231 44 5 1 20 -8 32 -19z m-1467
-306 c6 -8 17 -14 24 -14 8 0 15 -3 17 -7 5 -11 66 -53 77 -53 5 0 11 -3 13
-7 5 -12 66 -53 78 -53 5 0 10 -4 10 -9 0 -5 14 -14 30 -21 17 -7 30 -16 30
-21 0 -5 5 -9 10 -9 12 0 73 -41 78 -52 2 -5 8 -8 13 -8 9 0 65 -36 79 -50 7
-7 41 -28 67 -41 41 -22 34 -36 -25 -48 -89 -19 -190 -38 -282 -56 -47 -9
-116 -22 -155 -30 -38 -8 -84 -16 -101 -19 -18 -3 -44 -8 -59 -12 l-27 -7 7
84 c4 46 13 122 20 169 7 47 16 120 20 163 8 101 18 127 44 120 11 -3 26 -11
32 -19z m-8556 -267 c49 -10 91 -20 93 -22 6 -6 -18 -34 -38 -45 -11 -6 -37
-4 -71 5 -91 25 -99 18 -49 -45 29 -37 29 -37 10 -55 -20 -18 -21 -18 -51 11
-17 16 -79 85 -137 153 -85 100 -104 126 -95 140 27 43 49 26 170 -128 11 -13
13 -3 11 58 -2 70 -1 75 27 99 l30 25 5 -89 5 -89 90 -18z m-266 -16 c12 -8
13 -14 3 -35 -9 -19 -19 -26 -41 -26 -30 0 -61 -22 -61 -43 0 -13 64 -97 83
-109 33 -21 77 6 77 47 0 16 7 25 26 29 34 9 36 5 36 -43 -1 -46 -15 -73 -53
-95 -60 -36 -109 -17 -178 69 -74 91 -77 138 -13 192 28 24 94 31 121 14z
m-275 -242 l-26 -27 28 -37 28 -37 -25 -18 c-23 -18 -24 -18 -48 3 -25 23 -51
75 -51 102 0 8 17 33 37 56 l37 41 23 -28 22 -29 -25 -26z m13393 -7 l-28 -29
27 -32 c25 -31 26 -32 9 -51 -10 -11 -24 -20 -30 -20 -20 0 -66 67 -72 105 -5
31 -1 39 33 70 l38 35 25 -25 25 -25 -27 -28z m-13207 -14 c41 -56 40 -100 -1
-139 -38 -35 -40 -35 -67 -6 l-22 23 25 24 c30 28 31 41 5 65 -24 22 -25 33
-3 57 23 26 29 23 63 -24z m13389 0 c42 -58 43 -107 0 -142 -37 -32 -49 -32
-71 -2 -16 23 -16 24 7 46 30 28 31 41 5 65 -24 22 -25 33 -3 57 23 25 27 23
62 -24z m-13803 -19 c31 -30 32 -31 59 -13 25 17 27 16 48 -4 l21 -22 -23 -24
-23 -25 37 -46 c48 -58 68 -69 97 -54 18 10 24 8 39 -12 10 -13 19 -27 19 -31
0 -3 -20 -16 -44 -28 -41 -19 -47 -20 -74 -6 -15 8 -50 40 -76 71 -34 39 -53
54 -65 50 -23 -7 -56 29 -47 51 3 9 -2 27 -13 41 -11 13 -18 31 -15 39 2 8 6
21 9 29 6 22 15 19 51 -16z m13391 -6 l31 -38 27 25 27 25 19 -24 c24 -30 24
-36 -2 -55 -21 -14 -21 -17 -6 -38 49 -73 97 -104 123 -78 7 7 18 2 35 -16
l24 -26 -24 -19 c-59 -48 -110 -32 -181 57 -28 36 -49 53 -58 49 -22 -8 -53
24 -46 49 3 14 -2 28 -15 40 -15 14 -19 26 -14 45 12 53 18 53 60 4z m-2091
-202 c-4 -5 -28 -13 -54 -16 -26 -3 -76 -12 -112 -20 -64 -14 -141 -30 -297
-61 -43 -8 -107 -21 -143 -29 -36 -7 -103 -21 -150 -30 -47 -9 -114 -23 -150
-30 -225 -46 -356 -72 -415 -82 -43 -7 -50 -11 -53 -33 -6 -39 -39 -68 -83
-72 -35 -3 -39 -1 -39 19 0 19 5 23 30 23 29 0 51 22 36 37 -3 3 -36 -1 -73
-10 -38 -8 -86 -18 -108 -22 -22 -3 -53 -10 -70 -15 -27 -8 -68 -16 -250 -50
-84 -16 -195 -38 -229 -46 -22 -5 -28 -4 -24 7 2 7 33 19 69 26 171 33 219 43
284 59 39 9 95 20 127 24 31 4 61 10 66 14 6 3 36 10 69 15 56 9 240 46 373
75 36 8 103 22 150 31 47 9 114 23 150 30 88 18 205 42 293 59 73 15 181 37
297 61 36 7 103 21 150 30 47 9 99 20 115 24 32 8 52 0 41 -18z m124 -606 c0
-9 -10 -15 -26 -15 -14 0 -53 -6 -87 -14 -58 -14 -94 -21 -289 -61 -146 -29
-234 -47 -298 -60 -36 -7 -103 -21 -150 -30 -47 -9 -114 -23 -150 -30 -36 -7
-99 -20 -140 -28 -41 -9 -111 -23 -155 -32 -44 -9 -114 -23 -155 -31 -41 -8
-104 -21 -140 -28 -36 -8 -103 -22 -150 -31 -79 -16 -126 -25 -270 -55 -30 -6
-93 -18 -140 -26 -47 -8 -119 -22 -160 -29 -41 -8 -76 -15 -77 -15 -2 0 -3 4
-3 9 0 8 56 22 227 57 43 9 105 22 138 29 78 17 223 47 440 90 198 40 235 47
295 60 36 7 103 21 150 30 47 9 114 23 150 30 78 16 193 39 295 60 88 17 204
41 295 60 36 7 103 21 150 30 47 9 110 23 140 30 76 19 110 18 110 0z m-2565
-481 c51 -56 65 -78 56 -87 -8 -8 -18 -4 -40 17 -28 27 -30 27 -55 11 -27 -18
-26 -25 7 -62 10 -12 16 -27 12 -33 -10 -15 -11 -14 -89 68 -54 56 -67 75 -58
84 9 9 20 5 45 -20 l33 -32 24 25 24 25 -27 28 c-15 16 -27 33 -27 40 0 28 32
7 95 -64z m2690 -124 c6 -9 -40 -25 -106 -35 -18 -4 -63 -12 -99 -20 -36 -7
-100 -21 -142 -29 -185 -38 -232 -47 -305 -62 -43 -8 -107 -21 -143 -29 -36
-7 -91 -19 -122 -25 -63 -12 -62 -11 -49 -73 12 -58 39 -187 57 -277 8 -41 21
-104 29 -140 19 -84 22 -134 11 -140 -10 -5 -13 6 -41 140 -9 47 -23 114 -30
150 -7 36 -21 101 -29 145 -22 109 -36 169 -42 174 -2 2 -41 -4 -86 -13 -92
-20 -174 -37 -288 -59 -227 -46 -268 -54 -445 -91 -38 -8 -87 -18 -107 -21
-45 -7 -47 -20 -23 -125 16 -73 39 -185 56 -275 30 -162 37 -201 40 -214 2 -7
-2 -16 -8 -18 -7 -3 -13 3 -13 12 0 10 -7 49 -16 89 -8 39 -22 103 -30 141
-25 115 -45 206 -60 272 -8 34 -14 70 -14 82 0 17 -5 19 -37 14 -21 -2 -51 -9
-68 -14 -16 -4 -59 -13 -95 -19 -36 -6 -74 -13 -85 -15 -11 -2 -49 -8 -85 -15
-36 -6 -78 -15 -95 -20 -50 -14 -125 -22 -125 -12 0 9 24 15 185 47 44 9 107
23 140 30 33 8 98 21 145 30 47 9 114 23 150 30 36 8 100 21 143 29 184 38
231 47 304 62 43 8 107 21 143 29 36 7 103 21 150 30 47 9 114 23 150 30 110
23 222 45 298 60 141 28 228 46 297 60 106 22 202 42 290 59 44 9 96 20 115
25 50 12 78 12 85 1z m-4130 -930 c0 -8 -10 -16 -22 -18 -23 -3 -50 -29 -40
-39 4 -3 27 0 52 7 48 13 65 7 86 -32 11 -21 -11 -72 -36 -82 -35 -13 -65 -7
-65 14 0 14 7 20 23 20 30 0 50 19 37 35 -8 9 -22 10 -55 2 -38 -9 -48 -8 -65
8 -27 24 -25 51 5 81 28 28 80 31 80 4z m3289 -319 c7 -6 44 -13 83 -17 87 -8
102 -16 83 -39 -12 -15 -26 -16 -87 -11 -65 6 -73 5 -73 -11 0 -9 14 -31 30
-48 l30 -31 -20 -19 c-21 -19 -22 -18 -116 76 -112 110 -171 193 -153 215 9
11 17 7 43 -26 40 -51 115 -114 124 -105 4 4 7 35 7 70 1 40 6 69 15 80 14 16
15 11 18 -53 2 -42 8 -75 16 -81z m-6861 -1 c14 -13 -11 -49 -31 -43 -22 5
-72 -32 -72 -55 0 -23 100 -122 124 -122 27 0 56 29 56 56 0 23 35 52 48 39 4
-3 7 -24 7 -45 0 -62 -67 -112 -131 -96 -31 8 -120 89 -140 128 -29 57 -10
111 51 143 29 15 71 13 88 -5z m6687 -50 c16 -9 18 -14 8 -35 -8 -19 -16 -23
-34 -19 -24 6 -64 -25 -64 -49 0 -21 100 -127 119 -127 25 0 56 38 53 64 -2
16 4 26 22 34 29 13 36 7 36 -30 0 -41 -26 -85 -60 -103 -52 -27 -77 -20 -142
43 -64 61 -88 97 -88 134 0 63 94 118 150 88z m-482 -250 c34 -40 35 -41 59
-24 24 15 27 15 47 -6 l21 -21 -22 -19 c-13 -10 -23 -21 -23 -25 0 -4 23 -34
52 -67 48 -55 54 -60 85 -55 27 5 35 2 44 -15 15 -27 -10 -48 -57 -48 -39 0
-68 22 -124 95 -31 41 -48 54 -61 50 -21 -7 -54 34 -39 49 5 5 -1 21 -16 41
-18 24 -23 40 -18 59 3 14 9 26 12 26 3 0 21 -18 40 -40z m-6633 -40 c24 23
25 23 45 5 l20 -18 -20 -22 c-11 -12 -20 -26 -20 -32 0 -12 95 -103 107 -103
5 0 18 7 30 15 20 14 23 14 34 -7 10 -19 8 -25 -16 -46 -41 -35 -77 -24 -146
44 -39 39 -60 53 -72 48 -25 -9 -49 15 -43 41 4 15 -1 28 -14 40 -21 19 -25
41 -14 70 6 14 13 10 45 -21 l39 -38 25 24z m6600 -111 c8 -24 7 -26 -36 -47
-46 -24 -58 -47 -37 -69 16 -15 20 -15 71 2 66 22 101 15 122 -25 20 -39 19
-62 -6 -94 -29 -37 -129 -85 -129 -62 0 2 -3 11 -6 19 -4 10 5 18 29 26 42 14
80 53 75 78 -4 22 -49 23 -115 2 -38 -12 -44 -11 -64 7 -33 29 -40 58 -25 101
13 39 64 83 97 83 10 0 21 -9 24 -21z m-6689 -31 c5 -16 2 -25 -11 -33 -36
-21 -75 -57 -75 -70 0 -7 6 -18 14 -24 11 -9 26 -6 70 16 63 31 101 26 122
-16 23 -45 -20 -122 -88 -157 -63 -33 -84 7 -21 41 45 25 76 65 67 88 -8 22
-39 22 -78 -2 -56 -35 -105 -29 -124 15 -25 54 -3 105 62 145 40 25 53 24 62
-3z m6518 -93 c3 -9 -3 -24 -14 -35 -11 -11 -20 -28 -20 -38 0 -9 25 -52 55
-95 45 -63 54 -82 44 -93 -6 -8 -15 -14 -20 -14 -5 0 -36 37 -69 82 -42 58
-60 91 -60 113 0 60 67 124 84 80z m-6695 -34 c8 -14 6 -23 -9 -36 -31 -28
-24 -53 35 -139 42 -61 52 -82 44 -93 -21 -24 -34 -14 -92 72 -68 100 -74 141
-30 187 32 33 39 34 52 9z m3121 -165 c0 -49 -4 -65 -16 -70 -9 -3 -59 -6
-112 -6 -53 0 -114 -3 -134 -6 l-38 -7 0 -65 0 -65 140 6 c159 6 155 8 148
-84 l-3 -44 -132 -5 c-72 -3 -133 -7 -135 -10 -2 -3 -2 -38 0 -77 l4 -73 154
0 154 0 0 -60 c0 -59 -1 -60 -27 -61 -16 0 -119 -6 -231 -12 -111 -7 -207 -10
-212 -9 -6 2 -10 45 -10 100 0 54 -5 140 -10 192 -5 52 -12 164 -16 248 l-7
152 64 1 c35 1 118 5 184 9 66 3 146 7 178 8 l57 2 0 -64z m3440 54 c10 -5 28
-26 41 -46 18 -30 20 -38 8 -44 -38 -21 -119 -94 -116 -103 13 -40 80 -31 105
13 16 29 47 48 59 36 3 -3 -4 -24 -15 -46 -14 -28 -16 -42 -9 -44 67 -17 112
-26 133 -26 14 0 52 -6 83 -14 31 -8 82 -17 115 -21 l59 -7 -6 -55 c-3 -31
-10 -60 -16 -66 -11 -11 -94 0 -218 29 -34 8 -64 14 -67 14 -10 0 -26 -66 -26
-105 l0 -43 53 -5 c28 -3 79 -11 112 -17 33 -7 70 -14 83 -16 21 -4 23 -9 17
-37 -4 -18 -11 -46 -16 -63 l-9 -30 -53 9 c-28 5 -81 15 -117 23 -98 21 -96
22 -111 -48 -7 -35 -14 -69 -14 -77 0 -14 79 -40 125 -40 14 -1 58 -8 98 -18
79 -18 78 -18 66 -95 -6 -37 -8 -38 -48 -38 -22 0 -58 5 -79 11 -37 10 -166
32 -280 49 -32 4 -61 11 -65 15 -9 8 -4 64 13 155 7 41 20 118 29 170 9 52 21
124 27 160 6 36 14 84 16 108 5 38 3 42 -17 42 -34 0 -53 15 -94 74 -33 48
-38 62 -33 93 12 75 108 134 167 103z m-6721 -11 c19 -7 44 -29 61 -54 l30
-43 -65 -42 c-66 -43 -75 -56 -53 -78 23 -23 66 -14 90 18 21 29 58 41 58 20
0 -25 -33 -71 -61 -85 -17 -9 -47 -15 -67 -13 -33 3 -41 10 -84 73 -68 102
-64 159 17 200 36 18 34 18 74 4z m4968 -13 c57 -3 159 -11 228 -18 139 -13
130 -7 119 -92 l-7 -46 -102 6 -102 7 -7 -49 c-4 -27 -11 -121 -16 -209 -5
-88 -12 -191 -16 -229 l-7 -69 -80 7 c-45 4 -82 8 -84 9 -4 5 18 416 26 483 8
71 6 74 -57 74 -20 0 -61 3 -89 6 l-53 7 0 57 c0 31 3 59 6 63 3 3 36 4 73 2
36 -3 112 -7 168 -9z m-2315 -136 c3 -74 11 -189 17 -255 6 -66 11 -159 11
-207 l0 -86 -64 -7 c-104 -11 -100 -16 -108 110 -4 61 -13 166 -19 235 -6 69
-13 173 -16 232 l-6 107 49 4 c27 2 67 3 89 3 l40 -1 7 -135z m-272 110 c0 -5
-6 -27 -14 -47 -7 -21 -21 -67 -31 -103 -10 -36 -24 -87 -31 -115 -8 -27 -21
-72 -28 -100 -8 -27 -22 -79 -31 -115 -10 -36 -23 -85 -30 -110 -7 -25 -16
-57 -19 -72 -9 -38 -31 -47 -125 -50 -78 -3 -82 -2 -96 22 -33 58 -105 214
-105 226 0 8 -4 14 -10 14 -5 0 -10 6 -10 13 -1 6 -41 93 -90 192 l-89 180 72
12 c120 19 119 19 141 -35 11 -26 32 -76 48 -112 27 -60 37 -84 66 -150 11
-25 38 -92 63 -160 l13 -34 13 59 c7 33 17 83 22 110 9 54 25 121 47 201 8 28
14 62 15 75 0 13 6 40 13 59 l13 35 84 6 c46 3 87 6 92 7 4 1 7 -2 7 -8z
m-2666 -64 c11 -18 16 -19 45 -6 28 11 34 11 42 -1 13 -21 11 -25 -16 -37 -14
-6 -25 -17 -25 -24 1 -7 20 -40 44 -73 39 -55 45 -60 79 -59 24 1 38 -4 42
-15 8 -21 -21 -41 -60 -41 -36 0 -67 28 -115 108 -17 28 -36 52 -41 52 -10 0
-89 -50 -89 -57 0 -9 67 -109 81 -120 8 -6 30 -13 49 -15 48 -4 49 -38 2 -50
-45 -12 -87 15 -136 87 -29 42 -43 54 -57 50 -22 -7 -47 31 -30 48 7 7 4 19
-10 38 -19 27 -19 30 -3 55 l17 26 32 -38 32 -38 42 27 c46 30 48 37 25 72
-12 19 -13 28 -3 46 13 25 13 25 53 -35z m5855 37 c26 -6 26 -8 1 -218 -14
-114 -31 -287 -37 -375 -3 -41 -9 -80 -14 -86 -9 -12 -148 1 -162 15 -4 4 -3
48 3 97 6 49 15 149 20 222 6 73 14 161 20 195 5 34 10 86 10 116 l0 54 68 -7
c37 -4 78 -10 91 -13z m397 -39 l41 -5 17 -82 c9 -45 24 -112 32 -148 8 -37
14 -81 14 -98 0 -34 25 -91 39 -91 12 0 51 81 51 106 0 11 -5 25 -12 32 -15
15 9 44 32 37 11 -4 21 5 34 31 15 33 15 39 1 60 -12 19 -13 28 -3 49 12 26
12 26 27 6 18 -23 31 -18 48 22 9 19 20 27 37 27 18 0 24 4 20 14 -3 8 0 25 7
37 l12 23 28 -34 29 -34 30 17 c17 10 35 15 40 12 14 -9 12 -32 -2 -38 -7 -3
0 -10 16 -16 28 -11 29 -13 22 -66 -7 -62 8 -81 52 -64 45 17 59 -18 17 -45
-13 -9 -35 -16 -48 -16 -21 0 -25 -6 -30 -37 -6 -42 -22 -193 -36 -350 -5 -56
-12 -106 -15 -111 -3 -5 -38 -3 -81 6 l-75 15 0 41 c0 47 18 200 27 231 3 13
-12 2 -41 -28 -26 -26 -59 -50 -75 -53 -23 -5 -35 -19 -66 -81 l-38 -75 -53 6
c-50 6 -78 -4 -54 -19 7 -5 5 -11 -6 -20 -19 -13 -37 3 -137 123 l-36 42 -11
-53 -11 -54 -53 5 c-57 5 -77 -8 -56 -33 16 -19 45 -19 75 1 41 27 94 23 121
-10 33 -37 31 -78 -6 -119 -37 -43 -91 -71 -102 -54 -13 20 -9 35 11 42 32 10
71 53 71 79 0 35 -32 43 -76 17 -47 -28 -89 -27 -119 4 -29 28 -32 66 -11 158
8 34 22 107 31 162 9 55 23 132 30 170 8 39 21 106 29 150 9 44 16 91 16 104
0 22 1 23 78 17 42 -4 95 -9 118 -12z m-4537 -45 c55 -18 103 -43 108 -56 3
-7 10 -13 17 -13 14 -1 41 -37 79 -109 28 -52 30 -63 30 -161 0 -88 -4 -113
-23 -157 -13 -29 -27 -53 -32 -53 -4 0 -8 -5 -8 -11 0 -14 -57 -66 -95 -87
-70 -38 -129 -52 -221 -52 -66 0 -103 5 -131 18 -140 63 -213 182 -213 347 0
51 5 90 15 109 8 15 15 34 15 42 0 19 109 128 149 149 81 41 234 58 310 34z
m-674 -127 c3 -20 12 -62 20 -92 13 -53 28 -116 60 -252 34 -152 47 -205 56
-241 6 -22 9 -40 7 -41 -2 -2 -30 -8 -63 -15 -33 -7 -70 -15 -82 -18 -18 -4
-23 -1 -23 16 0 12 -6 47 -14 79 -8 31 -21 89 -30 127 -8 39 -22 100 -31 136
-8 36 -15 76 -15 90 0 13 -7 33 -15 43 -14 18 -15 15 -15 -34 0 -50 -6 -92
-46 -331 -8 -48 -14 -101 -14 -118 0 -25 -5 -32 -27 -36 -16 -3 -45 -9 -65
-14 -38 -8 -58 1 -58 26 0 7 -4 13 -8 13 -4 0 -20 26 -35 58 -16 31 -43 84
-62 117 -45 82 -105 204 -105 215 0 6 -4 10 -10 10 -5 0 -10 8 -10 17 0 9 -2
14 -5 11 -3 -2 2 -38 10 -79 26 -136 45 -254 46 -284 0 -16 6 -57 13 -90 l13
-60 -51 -17 c-28 -9 -63 -17 -78 -17 -24 -1 -27 4 -37 49 -6 28 -11 63 -11 78
0 15 -6 65 -14 112 -8 47 -22 139 -31 205 -9 66 -20 143 -24 171 -9 64 -6 74
29 74 16 0 40 4 55 10 14 5 51 14 81 19 l56 8 24 -39 c14 -21 29 -49 35 -61 5
-12 18 -35 28 -52 26 -40 121 -228 121 -238 0 -5 7 -15 15 -23 13 -14 15 -8
15 48 0 35 5 92 11 128 5 36 14 97 19 135 5 39 15 91 21 117 l11 46 71 12 c40
6 88 14 107 19 45 9 48 7 55 -37z m-1192 -118 c38 -53 71 -102 74 -110 3 -9
-14 -34 -44 -64 -43 -43 -56 -50 -89 -50 -50 0 -69 14 -145 102 l-62 72 23 18
c12 10 25 18 29 17 3 0 31 -32 61 -70 58 -73 86 -88 126 -70 42 19 38 36 -23
118 -79 104 -78 102 -57 118 11 8 24 14 29 14 6 0 41 -43 78 -95z m-240 -146
c13 -13 48 -49 77 -81 l54 -58 -22 -22 -23 -22 -66 73 c-57 64 -69 73 -96 70
-19 -2 -38 -13 -51 -31 l-20 -27 79 -80 c77 -78 78 -80 61 -99 -15 -17 -22
-18 -36 -8 -38 27 -183 169 -216 213 l-36 47 22 21 21 21 33 -38 32 -38 41 40
c34 35 47 41 81 41 29 0 48 -7 65 -22z m4352 -1441 c10 -37 64 -67 123 -67 43
0 56 5 82 30 16 16 30 36 30 45 0 8 6 15 14 15 9 0 15 -24 20 -87 4 -49 9
-101 12 -118 2 -16 9 -88 14 -160 6 -71 13 -136 15 -143 3 -7 7 -47 10 -90 3
-42 12 -135 20 -207 8 -71 17 -164 20 -205 3 -41 9 -118 15 -170 5 -52 16
-165 25 -250 14 -145 23 -242 60 -630 8 -85 22 -216 30 -290 8 -74 15 -150 15
-167 l0 -33 -720 0 -720 0 0 43 c0 24 4 68 10 98 5 30 14 108 19 174 5 66 15
170 21 230 6 61 17 179 25 263 37 382 46 476 60 607 9 77 15 160 15 185 0 25
5 72 10 105 5 33 14 112 19 175 5 63 14 162 20 220 42 401 45 430 58 430 7 0
13 -7 13 -16 0 -9 9 -18 20 -21 11 -3 20 -9 20 -14 0 -5 29 -9 65 -9 37 0 65
4 65 10 0 6 7 10 15 10 9 0 19 8 22 18 16 40 22 41 240 42 l213 0 5 -23z
m1280 -17 c3 -5 33 -10 65 -10 41 0 64 -5 75 -16 18 -18 97 -22 103 -5 4 13
118 15 126 2 3 -5 67 -12 141 -16 74 -4 137 -11 140 -15 3 -4 59 -11 125 -15
66 -4 122 -11 125 -15 3 -4 51 -11 107 -15 86 -6 104 -11 119 -29 28 -33 31
-63 12 -103 -12 -27 -14 -38 -5 -41 7 -2 12 -9 12 -16 0 -18 36 -44 66 -48 21
-2 33 -15 55 -57 16 -30 29 -60 29 -67 0 -7 6 -19 13 -26 6 -7 57 -103 113
-213 55 -110 130 -258 166 -330 37 -71 69 -137 73 -145 3 -8 21 -42 39 -75 19
-33 80 -152 137 -265 57 -113 106 -207 109 -210 3 -3 69 -133 148 -290 79
-157 168 -331 197 -387 l54 -103 -824 0 -825 0 0 23 c-1 12 -7 33 -15 47 -8
14 -14 35 -15 47 0 13 -7 41 -16 64 -14 35 -20 40 -40 35 -35 -9 -66 10 -114
70 -30 38 -49 54 -61 51 -26 -7 -51 26 -44 55 4 16 1 29 -9 37 -20 17 -20 40
-1 68 l16 22 33 -37 34 -37 27 25 26 25 19 -25 c19 -25 19 -25 -7 -52 l-26
-27 43 -50 c53 -64 71 -67 59 -8 -5 23 -15 60 -23 82 -8 22 -15 52 -16 68 0
15 -4 27 -10 27 -5 0 -10 8 -10 18 0 9 -7 37 -15 62 -13 41 -49 163 -92 310
-17 62 -39 136 -58 195 -7 22 -20 69 -30 105 -9 36 -23 85 -31 110 -14 48 -64
219 -91 310 -8 30 -19 66 -24 80 -5 14 -15 49 -23 78 l-13 52 30 0 c73 0 105
93 50 145 -28 25 -67 33 -77 16 -3 -5 -14 -11 -25 -14 -17 -4 -22 4 -36 52 -9
31 -22 74 -29 96 -12 38 -29 96 -63 215 -8 30 -20 69 -25 85 -23 70 -26 95
-13 95 8 0 17 -4 20 -10z m-3882 -188 c16 -2 34 1 40 6 7 5 50 13 97 17 47 4
87 11 90 15 3 3 50 12 105 19 238 28 320 39 320 41 0 3 225 29 319 36 l69 6
-7 -26 c-13 -54 -26 -76 -44 -76 -10 0 -29 -12 -43 -26 -31 -33 -34 -120 -6
-148 18 -18 17 -24 -8 -121 -8 -27 -21 -79 -31 -115 -9 -36 -22 -85 -29 -110
-19 -68 -41 -147 -60 -220 -9 -36 -23 -87 -31 -114 -8 -26 -14 -56 -14 -65 0
-10 -3 -21 -7 -25 -4 -3 -8 -12 -10 -19 -1 -7 -7 -30 -12 -52 -10 -47 -29 -96
-30 -77 -1 17 -36 15 -51 -3 -18 -21 -3 -55 25 -55 23 0 23 -1 10 -47 -8 -27
-21 -75 -30 -108 -9 -33 -23 -85 -31 -115 -22 -79 -39 -146 -59 -220 -9 -36
-23 -85 -31 -110 -8 -25 -14 -55 -14 -67 0 -12 -4 -24 -9 -27 -4 -3 -11 -25
-15 -48 -4 -24 -13 -63 -21 -88 -8 -25 -21 -74 -30 -110 -35 -138 -65 -244
-74 -259 -5 -8 -228 -10 -808 -9 l-801 3 68 140 c38 77 101 208 140 290 40 83
95 197 122 255 28 58 91 186 139 285 49 100 89 186 89 193 0 7 5 12 10 12 6 0
10 5 10 12 0 11 60 139 146 311 24 49 44 95 44 103 0 8 5 14 10 14 6 0 10 5
10 12 0 6 23 58 52 114 48 98 50 105 35 122 -22 24 -21 35 3 57 25 23 25 33
-2 62 -24 26 -19 46 16 67 14 9 22 6 41 -18 12 -16 28 -27 34 -25 7 3 -12 33
-43 68 -37 43 -56 73 -56 90 0 72 78 139 145 127 40 -8 39 -6 23 -41 -9 -19
-19 -25 -43 -25 -63 0 -70 -46 -17 -107 l28 -33 39 78 c21 42 43 80 49 84 5 4
-21 44 -62 94 -66 83 -70 90 -55 106 9 10 20 18 24 18 4 0 35 -34 69 -75 34
-41 66 -73 71 -70 5 4 9 35 9 70 0 55 3 66 23 80 l22 16 5 -83 c5 -82 5 -83
33 -86z m-666 -392 c6 0 17 10 25 22 10 14 20 19 31 15 29 -11 31 -36 7 -62
l-23 -24 38 -43 c51 -57 62 -63 93 -49 21 10 28 9 45 -7 25 -25 16 -39 -38
-63 -56 -25 -79 -16 -141 55 -35 41 -51 53 -60 45 -18 -15 -55 28 -48 56 3 13
-1 27 -10 34 -19 16 -20 44 -5 74 12 21 13 20 44 -16 18 -20 37 -37 42 -37z
m-77 -119 c14 -28 12 -51 -5 -51 -22 0 -79 -55 -71 -68 10 -17 31 -15 68 8 48
29 101 26 127 -6 28 -35 26 -71 -3 -115 -26 -38 -113 -102 -130 -96 -6 2 -12
17 -14 33 -2 24 3 32 34 49 46 25 72 61 55 78 -9 9 -21 6 -54 -11 -60 -32 -99
-29 -131 9 -31 36 -33 64 -7 103 18 28 94 86 112 86 5 0 13 -9 19 -19z m-173
-133 l23 -21 -25 -23 c-38 -35 -34 -47 54 -159 42 -54 43 -56 26 -75 -10 -11
-23 -20 -30 -20 -6 0 -42 41 -78 92 -80 110 -87 147 -36 197 17 17 33 31 37
31 3 0 16 -10 29 -22z m-130 -128 c5 0 73 -94 73 -100 0 -4 -27 -25 -60 -46
-62 -40 -74 -66 -32 -72 25 -4 62 23 62 45 0 8 12 13 35 13 29 0 35 -4 35 -21
0 -30 -28 -74 -60 -93 -32 -18 -67 -20 -104 -6 -28 10 -84 82 -117 148 -18 37
-19 47 -9 73 23 54 84 83 145 67 16 -4 31 -8 32 -8z m-323 -70 c14 -22 29 -40
31 -40 3 0 16 7 29 15 23 15 25 14 45 -11 l22 -28 -26 -20 -26 -21 34 -50 c45
-65 61 -79 90 -71 29 7 63 -25 53 -49 -7 -19 -53 -37 -76 -30 -31 10 -70 45
-112 104 -23 31 -42 57 -44 59 -3 5 -74 -42 -74 -49 0 -3 19 -32 41 -63 39
-54 44 -58 76 -54 28 3 38 -1 54 -23 l19 -27 -25 -16 c-45 -30 -84 -21 -131
29 -23 25 -52 61 -65 80 -15 22 -30 33 -40 30 -22 -7 -56 32 -41 47 8 8 5 18
-9 38 -14 19 -18 34 -14 53 11 42 23 42 59 1 l33 -38 31 23 c37 26 38 32 16
66 -14 21 -14 30 -4 55 7 17 16 30 20 30 4 0 19 -18 34 -40z m-109 -326 c47
-58 85 -112 85 -120 0 -22 -57 -80 -96 -99 -58 -27 -95 -10 -183 86 l-74 81
25 25 25 25 69 -76 c38 -42 77 -79 87 -82 20 -6 67 20 67 38 0 6 -26 43 -57
81 -91 111 -88 105 -67 128 9 10 21 19 25 19 5 0 47 -48 94 -106z m-193 -176
c32 -35 68 -75 79 -90 l20 -27 -26 -17 -26 -17 -72 71 c-40 40 -79 72 -88 72
-23 0 -59 -29 -59 -48 0 -10 32 -49 70 -87 39 -38 70 -75 70 -81 0 -19 -37
-47 -52 -37 -7 4 -69 66 -138 136 -130 133 -134 141 -87 171 13 8 23 3 50 -29
l34 -39 18 27 c24 37 61 56 109 57 35 0 45 -6 98 -62z m-274 -132 c9 -21 7
-26 -25 -47 -46 -30 -62 -54 -46 -70 9 -9 23 -5 58 15 61 36 102 37 132 2 12
-15 23 -37 23 -49 0 -44 -64 -123 -126 -155 -25 -13 -44 1 -44 34 0 15 10 26
30 34 33 14 70 54 70 76 0 22 -38 16 -78 -11 -47 -32 -86 -32 -117 0 -46 45
-21 121 54 172 43 29 55 29 69 -1z m6215 -532 c4 -20 -1 -27 -27 -38 -44 -19
-73 -53 -58 -68 9 -9 24 -7 65 10 66 28 85 28 114 0 37 -35 32 -88 -14 -139
-46 -51 -112 -87 -124 -67 -19 29 -9 53 32 72 48 22 78 61 60 79 -8 8 -22 6
-56 -11 -72 -35 -116 -29 -141 20 -28 53 6 121 77 156 48 24 65 20 72 -14z
m-184 -118 c11 -21 10 -26 -13 -49 -25 -25 -26 -28 -11 -54 8 -16 27 -43 41
-60 l27 -33 -44 0 c-41 0 -47 3 -72 42 -37 58 -37 110 2 149 36 35 54 37 70 5z
m-8339 -552 l0 -56 34 6 c41 8 92 -11 121 -44 17 -19 21 -39 24 -141 l3 -119
-36 0 -36 0 0 104 c0 121 -9 139 -69 134 l-36 -3 -3 -117 -3 -118 -34 0 -35 0
0 205 0 205 35 0 35 0 0 -56z m630 -54 l49 0 3 37 c2 30 9 41 36 56 l32 19 0
-56 0 -56 41 0 c39 0 40 -1 37 -32 -3 -30 -6 -33 -40 -36 l-38 -3 0 -66 c0
-71 16 -103 52 -103 13 0 18 -8 18 -30 0 -28 -3 -30 -36 -30 -75 0 -104 44
-104 160 l0 70 -50 0 -50 0 0 -69 c0 -74 14 -101 51 -101 14 0 19 -7 19 -30 0
-28 -2 -30 -39 -30 -28 0 -49 7 -68 24 -26 23 -28 30 -31 115 -3 70 -7 91 -18
91 -9 0 -14 12 -14 35 0 24 5 35 15 35 11 0 15 11 15 38 0 33 4 40 33 54 l32
15 3 -53 3 -54 49 0z m1010 55 l0 -55 35 0 c33 0 35 -2 35 -35 0 -33 -2 -35
-35 -35 l-35 0 0 -76 c0 -75 0 -76 30 -87 23 -9 30 -17 30 -39 0 -26 -3 -28
-37 -28 -71 1 -93 37 -93 148 0 71 -2 80 -20 85 -15 4 -20 14 -20 36 0 24 4
31 20 31 16 0 20 7 20 38 0 30 5 40 28 54 15 9 30 17 35 17 4 1 7 -24 7 -54z
m710 -56 l0 -111 47 56 c45 53 50 56 92 56 l45 0 -35 -37 c-19 -21 -47 -52
-62 -69 l-28 -31 61 -78 c33 -43 60 -79 60 -81 0 -2 -17 -4 -39 -4 -35 0 -42
5 -80 55 -23 31 -46 53 -52 50 -5 -4 -9 -28 -9 -56 l0 -49 -35 0 -35 0 0 205
0 205 35 0 35 0 0 -111z m-2468 -10 c14 -8 15 -14 7 -39 -9 -26 -13 -28 -35
-19 -38 14 -80 11 -95 -7 -11 -14 -11 -18 4 -29 10 -7 35 -15 57 -19 96 -15
119 -117 38 -166 -37 -22 -107 -26 -157 -9 -33 12 -34 13 -22 44 7 17 17 20
82 20 67 0 74 2 74 20 0 19 -16 27 -76 40 -48 9 -74 39 -74 83 0 47 24 78 69
91 33 10 100 5 128 -10z m1131 10 c51 -14 77 -57 77 -126 l0 -53 -85 0 c-76 0
-85 -2 -85 -19 0 -39 34 -48 105 -27 11 3 29 -1 40 -9 19 -15 19 -16 -8 -43
-24 -23 -35 -27 -88 -27 -56 0 -63 3 -90 33 -27 31 -29 37 -29 121 0 100 16
133 73 150 43 12 46 12 90 0z m265 -26 c3 -31 1 -33 -27 -33 -49 0 -61 -29
-61 -142 l0 -98 -30 0 -30 0 0 123 c0 115 2 125 23 145 28 27 65 42 97 39 20
-2 26 -8 28 -34z m182 26 c54 -11 56 -15 39 -53 -10 -21 -15 -23 -36 -15 -37
14 -79 11 -94 -7 -11 -14 -11 -18 4 -29 10 -7 35 -15 56 -19 52 -8 80 -33 87
-77 12 -74 -74 -125 -178 -105 -52 10 -61 19 -48 48 11 23 16 24 83 24 60 -1
72 2 75 16 4 19 -12 28 -86 48 -34 9 -46 18 -60 46 -16 34 -15 37 3 72 14 25
31 41 55 49 44 15 40 15 100 2z m712 1 c33 -10 78 -50 78 -70 0 -5 -13 -13
-29 -18 -23 -8 -31 -7 -45 9 -19 23 -59 25 -80 3 -19 -19 -22 -134 -4 -152 17
-17 68 -15 89 3 20 19 69 10 69 -12 0 -43 -85 -82 -153 -69 -58 11 -81 46 -85
131 -6 111 18 161 83 178 32 8 38 7 77 -3z m-1892 -115 c0 -105 2 -115 20
-125 12 -6 33 -10 48 -8 l27 3 3 123 3 122 34 0 35 0 0 -143 0 -144 -39 -11
c-82 -25 -162 -8 -186 39 -11 20 -15 61 -15 144 l0 115 35 0 35 0 0 -115z
m1610 81 c0 -34 -1 -35 -42 -38 -43 -3 -43 -3 -46 -45 -3 -42 -4 -43 -39 -43
l-35 0 4 57 c6 75 36 103 109 103 l49 0 0 -34z m95 -163 c-1 -75 -29 -103
-102 -103 l-54 0 3 33 c3 29 6 32 43 37 39 5 40 6 43 48 3 42 4 43 35 40 32
-3 32 -4 32 -55z"/>
<path d="M3660 9058 c-19 -5 -47 -12 -62 -15 -16 -3 -28 -9 -28 -13 0 -5 -13
-11 -30 -15 -16 -4 -30 -10 -30 -15 0 -4 -10 -10 -22 -14 -20 -5 -128 -98
-128 -110 0 -3 -13 -24 -28 -48 -54 -82 -67 -132 -67 -258 0 -75 5 -127 14
-150 25 -64 56 -124 71 -140 8 -9 24 -27 36 -41 48 -57 136 -118 199 -138 22
-7 47 -15 55 -18 12 -4 13 -3 3 8 -7 7 -13 19 -13 26 0 22 27 15 44 -12 11
-17 26 -25 46 -25 36 0 37 4 5 46 -28 37 -32 54 -11 54 8 0 28 -22 46 -50 30
-47 34 -50 74 -49 l41 1 -32 9 c-63 18 -97 118 -48 141 15 7 24 17 20 25 -3 7
-8 20 -11 28 -4 9 -1 15 9 15 17 0 120 -157 111 -171 -3 -5 -9 -7 -14 -4 -8 5
-36 -23 -29 -30 6 -5 65 15 99 34 52 29 130 92 156 126 l27 36 -51 74 c-29 40
-52 78 -52 84 0 14 59 51 82 51 19 0 68 -55 68 -76 0 -8 -11 -26 -25 -40 -21
-21 -25 -54 -6 -54 10 0 51 92 51 114 0 10 -11 31 -25 48 -24 28 -33 58 -18
58 4 0 17 -10 29 -21 l23 -21 7 36 c12 66 -25 211 -74 289 -37 60 -122 139
-188 173 -106 56 -236 77 -324 52z m393 -738 c39 -46 42 -68 16 -96 -37 -40
-76 -30 -112 28 -22 36 -21 54 3 78 29 29 64 25 93 -10z"/>
<path d="M4822 8661 c-50 -20 -142 -96 -142 -117 0 -7 -4 -14 -9 -14 -5 0 -17
-30 -27 -66 -15 -58 -16 -74 -5 -127 23 -110 104 -201 205 -228 23 -7 73 -9
115 -6 66 5 81 10 130 45 30 21 59 47 65 58 6 10 14 21 17 24 19 17 42 84 46
137 15 168 -120 314 -289 312 -36 0 -82 -8 -106 -18z"/>
<path d="M4456 8514 c-24 -17 -58 -18 -73 -3 -21 21 -36 -1 -19 -27 20 -29 20
-44 1 -44 -22 0 -18 -19 8 -41 29 -24 76 -24 105 1 17 14 23 30 24 61 1 52
-19 74 -46 53z"/>
<path d="M4634 7999 c-28 -31 -25 -96 5 -120 28 -23 79 -25 109 -3 32 22 31
98 0 125 -31 25 -90 25 -114 -2z"/>
<path d="M4265 7815 c-122 -31 -250 -123 -296 -212 -8 -16 -17 -30 -21 -33
-12 -10 -40 -95 -49 -155 -6 -33 -7 -87 -4 -120 7 -67 36 -175 48 -175 4 0 7
-6 7 -14 0 -12 57 -94 90 -127 31 -32 117 -87 170 -110 48 -21 70 -24 180 -24
123 0 158 8 220 46 8 5 25 13 38 19 29 13 149 134 157 160 3 11 11 20 16 20 5
0 9 5 9 11 0 6 6 25 14 42 36 82 47 213 25 304 -43 178 -192 327 -369 369 -68
16 -169 16 -235 -1z"/>
<path d="M5275 5232 c-69 -23 -115 -99 -115 -192 0 -109 46 -200 121 -239 48
-26 87 -26 136 -3 78 36 104 84 104 195 0 96 -21 156 -70 203 -35 33 -59 42
-116 42 -22 0 -49 -3 -60 -6z"/>
<path d="M7410 3338 c-30 -29 -32 -36 -28 -85 4 -45 10 -58 38 -83 27 -24 43
-30 78 -30 40 0 49 5 79 38 47 53 47 109 -1 157 -29 31 -39 35 -84 35 -43 0
-55 -4 -82 -32z"/>
<path d="M7094 2995 c-4 -8 -12 -15 -19 -15 -17 0 -28 -62 -16 -93 23 -61 130
-83 174 -36 31 33 29 111 -4 138 -30 26 -126 30 -135 6z"/>
<path d="M7793 3000 c-30 -13 -56 -55 -55 -91 1 -36 27 -79 47 -79 8 0 15 -4
15 -10 0 -16 46 -12 79 8 18 9 34 27 37 40 4 12 10 22 15 22 22 0 0 61 -34 94
-20 21 -74 29 -104 16z"/>
<path d="M7342 2737 c-14 -17 -26 -384 -13 -392 6 -3 61 -13 123 -21 62 -8
140 -19 173 -24 95 -16 93 -17 99 43 12 124 14 326 3 340 -8 10 -63 22 -167
36 -85 12 -167 23 -182 26 -14 2 -31 -1 -36 -8z"/>
<path d="M9467 3325 c-9 -9 -17 -23 -17 -31 0 -8 -4 -14 -10 -14 -21 0 -10
-65 15 -93 21 -22 34 -27 74 -27 68 0 91 22 91 86 -1 68 -18 86 -83 92 -41 3
-57 0 -70 -13z"/>
<path d="M9828 2973 c-10 -2 -18 -11 -18 -19 0 -8 -5 -23 -12 -33 -10 -16 -7
-24 19 -50 30 -30 83 -43 83 -21 0 6 7 10 15 10 8 0 15 8 15 18 0 10 5 23 12
30 9 9 9 12 0 12 -7 0 -12 6 -12 14 0 36 -47 54 -102 39z"/>
<path d="M5430 3351 c0 -5 -11 -12 -25 -15 -29 -7 -40 -39 -32 -96 7 -55 30
-75 87 -74 66 1 90 24 90 89 0 56 -4 63 -42 88 -29 18 -78 23 -78 8z"/>
<path d="M5110 2990 c0 -5 -6 -10 -13 -10 -20 0 -47 -38 -47 -65 0 -14 5 -25
10 -25 6 0 10 -6 10 -13 0 -7 14 -18 30 -24 17 -6 30 -8 30 -3 0 4 11 11 25
14 28 7 41 41 31 81 -4 15 -16 27 -31 31 -14 3 -25 10 -25 15 0 5 -4 9 -10 9
-5 0 -10 -4 -10 -10z"/>
<path d="M5760 2990 c0 -5 -7 -10 -15 -10 -8 0 -15 -7 -15 -15 0 -8 -4 -15
-10 -15 -5 0 -10 -13 -10 -30 0 -16 5 -30 10 -30 6 0 10 -6 10 -13 0 -20 47
-42 82 -39 65 5 93 95 45 140 -24 23 -97 32 -97 12z"/>
<path d="M5686 15848 c3 -84 7 -159 10 -166 3 -10 47 -12 196 -10 l193 3 3 60
c2 33 1 106 -3 163 l-7 102 -90 0 -89 0 3 -27 c3 -24 -1 -28 -27 -33 -23 -4
-30 -11 -32 -30 0 -14 -1 -31 -2 -38 -1 -8 -11 -12 -28 -10 -25 3 -28 7 -31
46 -2 28 3 53 13 68 l15 24 -65 0 -65 0 6 -152z"/>
<path d="M12366 15868 c3 -73 7 -142 9 -154 4 -18 21 -23 192 -46 103 -15 191
-24 195 -22 10 6 10 137 2 262 l-7 92 -89 0 -90 0 7 -30 c6 -29 5 -30 -30 -30
-35 0 -36 -1 -30 -29 7 -34 -5 -46 -41 -37 -21 6 -24 12 -24 54 0 26 5 53 12
60 9 9 -2 12 -50 12 l-61 0 5 -132z"/>
<path d="M10716 14583 l-48 -4 6 -47 c3 -26 10 -112 16 -192 6 -80 13 -149 14
-155 2 -6 76 -10 197 -9 l194 1 -2 104 c-1 57 -7 146 -14 197 -11 85 -14 94
-36 103 -23 9 -223 10 -327 2z"/>
<path d="M6098 14160 c-36 -37 -37 -79 -3 -108 14 -12 37 -22 53 -22 30 1 62
21 62 39 0 6 5 11 10 11 22 0 9 53 -19 81 -37 36 -68 36 -103 -1z"/>
<path d="M8830 14169 c-30 -11 -70 -77 -53 -87 6 -4 13 -17 17 -29 5 -16 18
-24 43 -29 74 -14 113 25 99 99 -6 35 -13 40 -66 52 -8 2 -26 -1 -40 -6z"/>
<path d="M4764 13516 c-40 -22 -54 -38 -54 -62 0 -13 -6 -24 -12 -24 -10 0
-10 -2 -1 -8 6 -4 15 -20 18 -35 4 -15 13 -27 21 -27 8 0 14 -4 14 -10 0 -5
18 -10 40 -10 22 0 40 5 40 10 0 6 7 10 15 10 8 0 15 7 15 15 0 8 4 15 9 15
17 0 20 44 4 77 -11 24 -25 36 -44 40 -16 3 -29 9 -29 14 0 11 -10 10 -36 -5z"/>
<path d="M10162 13494 c-12 -8 -22 -22 -22 -30 0 -8 -4 -14 -10 -14 -5 0 -10
-13 -10 -30 0 -16 3 -30 8 -30 4 0 12 -10 17 -22 23 -51 118 -49 148 3 22 39
22 59 0 98 -25 43 -88 55 -131 25z"/>
<path d="M9840 13191 c0 -5 -11 -12 -25 -15 -15 -4 -27 -16 -31 -31 -3 -14
-10 -25 -15 -25 -5 0 -9 -18 -9 -40 0 -22 5 -40 10 -40 6 0 10 -6 10 -13 0
-25 44 -51 95 -55 47 -4 54 -2 84 29 31 30 33 37 29 84 -4 51 -30 95 -55 95
-7 0 -13 5 -13 10 0 6 -18 10 -40 10 -22 0 -40 -4 -40 -9z"/>
<path d="M4400 13173 c-29 -12 -40 -33 -40 -79 0 -63 32 -94 95 -94 57 0 95
36 95 91 0 54 -37 89 -92 88 -24 0 -50 -3 -58 -6z"/>
<path d="M10521 13173 c-38 -15 -51 -38 -51 -88 0 -27 4 -55 8 -60 24 -34 112
-61 112 -35 0 6 6 10 14 10 24 0 46 41 46 84 0 64 -69 112 -129 89z"/>
<path d="M4768 12872 c-16 -2 -28 -8 -28 -13 0 -5 -6 -9 -12 -9 -24 -1 -50
-50 -50 -95 -2 -75 39 -116 117 -117 43 -1 94 25 95 49 0 6 5 13 11 15 16 5
15 83 -2 103 -47 57 -80 73 -131 67z"/>
<path d="M10195 12860 c-3 -5 -14 -10 -23 -10 -29 0 -82 -72 -82 -110 0 -35
45 -100 69 -100 6 0 11 -4 11 -10 0 -5 21 -10 46 -10 40 0 51 5 85 39 33 33
39 45 39 81 0 33 -6 48 -31 73 -50 49 -100 70 -114 47z"/>
<path d="M11858 12448 c-28 -33 -36 -58 -18 -58 6 0 10 -7 10 -16 0 -8 4 -13
9 -10 5 3 11 -3 14 -14 3 -10 17 -22 31 -26 20 -5 32 0 56 24 38 38 38 66 1
103 -38 38 -69 37 -103 -3z"/>
<path d="M11564 12173 c5 -9 -1 -13 -18 -13 -14 0 -31 -7 -38 -15 -7 -9 -19
-22 -25 -30 -20 -21 -16 -24 23 -14 31 9 94 4 94 -6 0 -2 -5 -15 -12 -29 -8
-20 -16 -24 -34 -20 -29 7 -64 -12 -64 -36 0 -11 13 -25 32 -34 34 -17 88 -21
88 -7 0 5 11 12 25 15 18 5 26 15 31 41 5 31 1 40 -35 83 -41 50 -82 88 -67
65z"/>
<path d="M2708 12120 c-32 -33 -35 -56 -10 -86 34 -42 94 -38 125 9 14 21 14
30 4 50 -33 63 -76 73 -119 27z"/>
<path d="M12197 12112 c-24 -26 -21 -67 7 -96 62 -68 160 22 100 92 -24 28
-84 30 -107 4z"/>
<path d="M11175 11840 c-4 -6 -1 -17 5 -25 10 -12 8 -19 -14 -36 l-26 -21 42
-51 c23 -29 46 -56 50 -62 5 -5 29 -10 54 -10 34 0 45 4 50 17 3 10 10 18 15
18 16 0 10 87 -8 119 -10 17 -21 31 -25 31 -4 0 -13 7 -22 15 -26 26 -27 -2
-1 -33 l25 -29 -21 -19 c-20 -18 -21 -18 -50 16 -16 19 -32 45 -35 58 -6 23
-28 30 -39 12z"/>
<path d="M3031 11804 c-26 -21 -31 -33 -31 -68 0 -36 5 -48 35 -74 45 -42 79
-42 128 1 49 45 51 84 3 132 -42 44 -90 47 -135 9z"/>
<path d="M11881 11823 c-22 -9 -51 -42 -62 -70 -12 -32 0 -72 30 -102 25 -25
96 -28 125 -6 20 15 46 60 46 80 0 17 -22 58 -41 78 -18 17 -76 29 -98 20z"/>
<path d="M10852 11518 c-7 -7 -12 -15 -12 -19 0 -4 31 -44 70 -90 66 -78 69
-84 53 -101 -9 -10 -19 -18 -23 -18 -4 0 -40 40 -81 90 -41 49 -77 90 -80 90
-4 0 -9 -9 -12 -21 -4 -14 5 -32 29 -59 l35 -38 -26 -20 c-42 -33 -27 -56 27
-41 31 9 38 4 38 -28 0 -20 5 -23 40 -23 22 0 40 4 40 9 0 5 10 12 23 15 32 9
61 54 60 96 -2 99 -18 132 -73 154 -48 19 -91 21 -108 4z"/>
<path d="M3390 11511 c0 -5 -11 -12 -25 -15 -15 -4 -27 -16 -31 -31 -3 -14
-10 -25 -15 -25 -5 0 -9 -20 -9 -45 0 -25 3 -45 8 -45 4 0 12 -10 17 -22 6
-13 20 -27 33 -33 12 -5 22 -13 22 -17 0 -5 20 -8 45 -8 25 0 45 4 45 9 0 5
11 12 25 15 15 4 27 16 31 31 3 14 10 25 15 25 15 0 10 77 -8 107 -9 16 -30
37 -46 46 -30 18 -107 23 -107 8z"/>
<path d="M11538 11500 c-48 -9 -75 -40 -84 -95 -7 -50 5 -78 50 -119 27 -24
37 -27 78 -24 62 6 106 48 114 111 5 32 2 47 -10 59 -9 9 -16 21 -16 27 0 29
-75 52 -132 41z"/>
<path d="M3726 11193 c-30 -8 -84 -73 -91 -111 -7 -37 2 -92 15 -92 4 0 10 -8
12 -17 6 -21 81 -63 112 -63 26 0 84 27 106 48 26 27 40 64 40 108 0 24 -4 44
-9 44 -5 0 -11 10 -15 23 -10 43 -105 76 -170 60z"/>
<path d="M12573 10471 c-13 -3 -36 -17 -53 -31 -23 -19 -30 -33 -30 -62 0 -44
27 -95 55 -102 83 -23 145 20 145 98 0 37 -5 51 -26 69 -30 26 -61 36 -91 28z"/>
<path d="M2720 10160 c0 -5 -10 -12 -23 -15 -34 -9 -57 -55 -57 -112 1 -48 24
-93 49 -93 6 0 11 -4 11 -10 0 -5 25 -10 56 -10 49 0 59 4 87 32 29 28 32 37
32 93 0 67 -13 89 -59 101 -14 3 -26 10 -26 15 0 5 -16 9 -35 9 -19 0 -35 -4
-35 -10z"/>
<path d="M2050 10130 c0 -5 -6 -10 -13 -10 -24 0 -47 -39 -47 -80 0 -22 5 -40
10 -40 6 0 10 -5 10 -11 0 -20 34 -38 72 -39 39 0 78 24 78 47 0 7 5 13 10 13
6 0 10 11 10 25 0 14 -4 25 -9 25 -5 0 -12 11 -15 25 -4 15 -16 27 -31 31 -14
3 -25 10 -25 15 0 5 -11 9 -25 9 -14 0 -25 -4 -25 -10z"/>
<path d="M12865 10095 c-35 -36 -35 -94 2 -131 22 -23 32 -26 70 -21 55 6 83
36 83 88 0 53 -37 89 -90 89 -29 0 -46 -7 -65 -25z"/>
<path d="M2398 9812 c-15 -2 -41 -16 -58 -32 -26 -24 -30 -35 -30 -77 1 -48
24 -93 49 -93 6 0 11 -4 11 -10 0 -5 21 -10 48 -10 55 1 83 20 106 73 13 33
13 41 0 73 -13 30 -13 38 -2 45 9 6 4 9 -14 9 -16 0 -28 4 -28 9 0 10 -44 17
-82 13z"/>
<path d="M1688 9748 c-36 -41 -35 -62 1 -99 28 -28 81 -41 81 -19 0 6 7 10 15
10 8 0 15 7 15 15 0 8 5 15 10 15 6 0 10 14 10 30 0 17 -4 30 -10 30 -5 0 -10
7 -10 15 0 8 -7 15 -15 15 -8 0 -15 5 -15 10 0 24 -56 9 -82 -22z"/>
<path d="M1683 8407 c-33 -33 -31 -92 4 -124 21 -21 34 -24 64 -20 47 6 69 26
76 72 5 30 1 39 -27 65 -39 37 -84 39 -117 7z"/>
<path d="M13235 8413 c-27 -7 -53 -35 -61 -67 -13 -53 63 -117 110 -93 40 21
56 44 56 82 0 56 -48 91 -105 78z"/>
<path d="M2031 8103 c-27 -11 -51 -38 -51 -55 0 -10 -4 -18 -10 -18 -25 0 -2
-67 38 -109 22 -22 104 -20 127 3 23 22 45 63 45 81 0 18 -22 59 -43 79 -18
19 -82 30 -106 19z"/>
<path d="M2375 7777 c-53 -18 -85 -59 -85 -110 0 -37 6 -50 35 -82 31 -32 42
-37 81 -38 25 0 49 4 52 9 4 5 16 14 27 20 11 6 24 24 30 40 5 16 14 32 20 36
6 5 5 12 -3 20 -6 6 -12 20 -12 29 0 51 -85 96 -145 76z"/>
<path d="M1700 7743 c-56 -23 -67 -126 -14 -139 13 -3 24 -10 24 -15 0 -15 39
-10 65 7 14 9 25 23 25 30 0 8 5 14 10 14 6 0 10 11 10 25 0 14 -4 25 -10 25
-5 0 -10 6 -10 14 0 32 -59 55 -100 39z"/>
<path d="M12862 6002 c-25 -29 -24 -58 5 -92 39 -45 123 -6 123 57 0 62 -84
86 -128 35z"/>
<path d="M14036 5617 c-3 -29 -10 -108 -17 -177 -19 -198 -31 -174 91 -182 58
-3 146 -4 197 -1 82 5 92 8 97 27 10 41 25 192 28 286 l3 95 -197 2 -197 1 -5
-51z"/>
</g>
</svg>
